<svg xmlns="http://www.w3.org/2000/svg" version="1.1" xmlns:xlink="http://www.w3.org/1999/xlink" xmlns:svgjs="http://svgjs.dev/svgjs" width="2000" height="1500" viewBox="0 0 2000 1500"><rect width="2000" height="1500" fill="#ffffff"></rect><g transform="matrix(0.75,0,0,0.75,249.090909090909,373.0437558477688)"><svg viewBox="0 0 396 199" data-background-color="#ffffff" preserveAspectRatio="xMidYMid meet" height="1005" width="2000" xmlns="http://www.w3.org/2000/svg" xmlns:xlink="http://www.w3.org/1999/xlink"><g id="tight-bounds" transform="matrix(1,0,0,1,0.2400000000000091,0.021449534055051345)"><svg viewBox="0 0 395.52 198.9571009318899" height="198.9571009318899" width="395.52"><g><svg viewBox="0 0 665.5079795019717 334.7682500221276" height="198.9571009318899" width="395.52"><g transform="matrix(1,0,0,1,268.0103795019717,89.00563828204555)"><svg viewBox="0 0 397.4975999999999 156.75697345803647" height="156.75697345803647" width="397.4975999999999"><g id="textblocktransform"><svg viewBox="0 0 397.4975999999999 156.75697345803647" height="156.75697345803647" width="397.4975999999999" id="textblock"><g></g><g transform="matrix(1,0,0,1,0.9887999999999693,0)"><svg viewBox="0 0 395.52 94.70197183098591" height="94.70197183098591" width="395.52"><g transform="matrix(1,0,0,1,0,0)"><svg width="395.52" viewBox="2.59 -41.11 228.79 54.78" height="94.70197183098591" data-palette-color="url(#82934427-3958-4d9a-bb0e-1e13b3c2b2fa)"></svg></g></svg></g><g transform="matrix(1,0,0,1,0,123.3634698149138)"><svg viewBox="0 0 232.209792 33.39350364312267" height="33.39350364312267" width="232.209792"><g transform="matrix(1,0,0,1,0,0)"><svg width="232.209792" viewBox="4.5 -36 255.52999999999997 36.75" height="33.39350364312267" data-palette-color="url(#d637dd9e-9ce4-4685-8d63-39628830bae8)"></svg></g></svg></g></svg></g></svg></g><g><svg viewBox="0 0 245.65351679999992 334.7682500221276" height="334.7682500221276" width="245.65351679999992"><g><svg xmlns="http://www.w3.org/2000/svg" xmlns:xlink="http://www.w3.org/1999/xlink" version="1.1" x="0" y="0" viewBox="17 0 94 128.1" enable-background="new 0 0 128 128" xml:space="preserve" width="245.65351679999992" height="334.7682500221276" class="icon-icon-0" data-fill-palette-color="accent" id="icon-0"></svg></g></svg></g></svg></g><defs></defs><mask id="ea29fb53-9266-4eb0-b0ae-baec5752baea"><g id="SvgjsG1126"><svg viewBox="0 0 395.52 198.9571009318899" height="198.9571009318899" width="395.52"><g><svg viewBox="0 0 665.5079795019717 334.7682500221276" height="198.9571009318899" width="395.52"><g transform="matrix(1,0,0,1,268.0103795019717,89.00563828204555)"><svg viewBox="0 0 397.4975999999999 156.75697345803647" height="156.75697345803647" width="397.4975999999999"><g id="SvgjsG1125"><svg viewBox="0 0 397.4975999999999 156.75697345803647" height="156.75697345803647" width="397.4975999999999" id="SvgjsSvg1124"><g><rect width="397.4975999999999" height="8.54032155215324" x="0" y="104.76256004687323" fill="white" opacity="1" stroke-width="0" stroke="transparent" fill-opacity="1" class="rect-qz-0" rx="1%" id="SvgjsRect1123" data-palette-color="url(#82934427-3958-4d9a-bb0e-1e13b3c2b2fa)"></rect></g><g transform="matrix(1,0,0,1,0.9887999999999693,0)"><svg viewBox="0 0 395.52 94.70197183098591" height="94.70197183098591" width="395.52"><g transform="matrix(1,0,0,1,0,0)"><svg width="395.52" viewBox="2.59 -41.11 228.79 54.78" height="94.70197183098591" data-palette-color="url(#82934427-3958-4d9a-bb0e-1e13b3c2b2fa)"><path d="M2.59 0L2.59-1.9 6.74-1.9 6.76-35.45 2.59-35.45 2.59-37.35 21-37.35Q26.73-37.35 29.53-34.73 32.32-32.1 32.32-27.98L32.32-27.98Q32.32-23.17 27.88-20.87L27.88-20.87Q26.56-20.19 25.1-19.8L25.1-19.8Q29.81-19.24 32.3-16.77 34.79-14.31 34.79-10.72L34.79-10.72Q34.79-5.79 31.19-2.89 27.59 0 20.9 0L20.9 0 2.59 0ZM13.33-20.31L19.31-20.31Q24.61-20.31 25.63-24.85L25.63-24.85Q25.95-26.22 25.95-27.78L25.95-27.78Q25.95-31.49 24.76-33.15L24.76-33.15Q23.14-35.45 18.65-35.45L18.65-35.45 13.33-35.45 13.33-20.31ZM13.33-1.9L18.99-1.9Q23.44-1.9 25.79-4.03 28.15-6.15 28.15-10.06L28.15-10.06Q28.15-15.8 23.58-17.72L23.58-17.72Q21.92-18.43 19.53-18.43L19.53-18.43 13.33-18.43 13.33-1.9ZM49.61-24.98L49.61-21.61Q53.54-25.39 58.1-25.39L58.1-25.39Q59.57-25.39 60.69-24.41 61.81-23.44 61.81-21.91 61.81-20.39 60.86-19.43 59.91-18.48 58.54-18.48L58.54-18.48Q57.18-18.48 56.24-19.42 55.3-20.36 55.3-21.75L55.3-21.75Q55.3-22.31 55.49-22.9L55.49-22.9Q51.95-21.83 49.61-19.26L49.61-19.26 49.61-1.88 54.95-1.88 54.95 0 39.57 0 39.57-1.88 43.21-1.88 43.21-23.07 39.55-23.07 39.55-24.98 49.61-24.98ZM81.12-2.76L81.12-2.76Q78.29 0.49 73.53 0.49L73.53 0.49Q69.92 0.49 67.3-1.53 64.69-3.54 64.69-6.8 64.69-10.06 67.26-11.93 69.82-13.79 73.86-13.79 77.9-13.79 80.61-11.77L80.61-11.77 80.61-17.58Q80.61-20.53 79.88-21.58 79.15-22.63 78.16-23.05 77.17-23.46 75.97-23.46L75.97-23.46Q74.09-23.46 72.8-23.03 71.5-22.61 71.06-22.17L71.06-22.17Q72.19-21.83 72.8-20.46L72.8-20.46Q72.99-19.97 72.99-19.29L72.99-19.29Q72.99-17.94 72.02-17.05 71.04-16.16 70.06-16.16L70.06-16.16Q68.35-16.16 67.4-17.07 66.45-17.97 66.45-19.24 66.45-20.51 66.91-21.33 67.38-22.14 68.16-22.8L68.16-22.8Q69.65-24.05 71.91-24.71 74.16-25.37 76.14-25.37L76.14-25.37Q81.64-25.37 84.27-23.14 86.91-20.92 86.91-16.94L86.91-16.94 86.91-3.93Q86.91-1.9 87.91-1.9 88.91-1.9 89.84-3.13L89.84-3.13 91.11-2.08Q89.45 0.44 85.69 0.44L85.69 0.44Q84.37 0.44 83.02-0.39 81.66-1.22 81.12-2.76ZM80.68-4.71L80.68-9.59Q78.61-11.62 76.14-11.62 73.68-11.62 72.43-10.46 71.19-9.3 71.19-6.74L71.19-6.74Q71.19-2.95 73.85-2.15L73.85-2.15Q74.6-1.9 75.39-1.9L75.39-1.9Q77.61-1.9 79.63-3.61L79.63-3.61Q80.22-4.13 80.68-4.71L80.68-4.71ZM110.51-23.07L110.51-23.07Q106.54-23.07 103.31-19.38L103.31-19.38 103.31-1.9 107.76-1.9 107.76 0 93.01 0 93.01-1.9 96.97-1.9 96.97-23.07 92.99-23.07 92.99-24.98 103.31-24.98 103.31-21.85Q106.97-25.39 111.69-25.39L111.69-25.39Q114.93-25.39 117.45-23.73L117.45-23.73Q120.7-21.58 120.7-16.89L120.7-16.89 120.7-1.9 124.65-1.9 124.65 0 109.9 0 109.9-1.9 114.35-1.9 114.35-17.38Q114.35-20.24 113.75-21.26 113.15-22.29 112.41-22.68 111.66-23.07 110.51-23.07ZM147.52 0L147.52-2.54Q144.64 0.49 138.91 0.49L138.91 0.49Q137 0.49 134.91-0.26 132.83-1 131.25-2.59 129.68-4.17 128.76-6.63 127.85-9.08 127.85-12.3L127.85-12.3Q127.85-18.36 131.39-21.88 134.93-25.39 140.03-25.39L140.03-25.39Q143.25-25.39 145.99-24.07L145.99-24.07Q146.87-23.66 147.52-23.14L147.52-23.14 147.52-39.21 142.47-39.21 142.47-41.11 153.87-41.11 153.87-1.9 157.49-1.9 157.49 0 147.52 0ZM141.05-23.29L141.05-23.29Q134.68-23.29 134.68-12.55L134.68-12.55Q134.68-4.57 138.12-2.49L138.12-2.49Q139.32-1.76 141.16-1.77 143.01-1.78 144.7-2.78 146.4-3.78 147.52-5.47L147.52-5.47 147.52-20.56Q145.64-22.51 142.74-23.1L142.74-23.1Q141.86-23.29 141.05-23.29ZM160.55 7.85Q161.19 7.18 161.79 6.92 162.39 6.67 163.53 6.67 164.66 6.67 165.48 7.53 166.3 8.4 166.3 9.42 166.3 10.45 165.69 11.28L165.69 11.28Q166.61 11.13 167.57 9.85 168.52 8.57 169.81 5.91L169.81 5.91 172.06 0.49 160.78-23.07 158.17-23.07 158.17-24.98 171.33-24.98 171.33-23.07 167.93-23.07 175.3-6.32 181.9-23.07 177.62-23.07 177.62-24.98 186.78-24.98 186.78-23.07 184.29-23.07 174.62 0.49 171.67 7.13Q169.93 10.57 168.73 11.72 167.52 12.87 166.54 13.27 165.56 13.67 164.51 13.67L164.51 13.67Q162.54 13.67 161.22 12.59 159.9 11.5 159.9 10.01 159.9 8.52 160.55 7.85ZM196.84-24.9L194.78-38.06Q194.59-39.23 195.57-40.17 196.54-41.11 197.9-41.11 199.25-41.11 199.94-40.5L199.94-40.5Q201.18-39.36 200.91-37.99L200.91-37.99 198.74-24.9 196.84-24.9ZM214.83-1.78L214.83-1.78Q214.05-1.25 213.95 0L213.95 0 211.6 0 211.7-7.35 213.95-7.35Q213.95-5.47 216.3-3.49 218.66-1.51 222.27-1.51 225.89-1.51 226.86-3.61L226.86-3.61Q227.13-4.22 227.13-4.88L227.13-4.88Q227.13-6.1 225.46-7.13 223.79-8.15 219.97-9.52 216.14-10.89 213.95-13.05 211.75-15.21 211.75-18.32 211.75-21.44 214.53-23.41 217.32-25.39 220.97-25.39 224.62-25.39 226.84-23.58L226.84-23.58Q227.52-23.8 227.91-24.66L227.91-24.66Q228.06-24.95 228.06-25.37L228.06-25.37 229.91-25.37 229.91-18.55 227.77-18.55Q227.35-20.85 225.56-22.13 223.76-23.41 221.34-23.41 218.93-23.41 217.62-22.47 216.32-21.53 216.32-20.19 216.32-18.85 217.82-17.74 219.32-16.63 222.07-15.66 224.81-14.7 226.37-13.96L226.37-13.96Q231.38-11.55 231.38-6.97 231.38-2.39 226.25-0.32L226.25-0.32Q224.25 0.49 222.17 0.49L222.17 0.49Q217.85 0.49 214.83-1.78Z" opacity="1" transform="matrix(1,0,0,1,0,0)" fill="white" class="wordmark-text-0" id="SvgjsPath1122"></path></svg></g></svg></g><g transform="matrix(1,0,0,1,0,123.3634698149138)"><svg viewBox="0 0 232.209792 33.39350364312267" height="33.39350364312267" width="232.209792"><g transform="matrix(1,0,0,1,0,0)"><svg width="232.209792" viewBox="4.5 -36 255.52999999999997 36.75" height="33.39350364312267" data-palette-color="url(#d637dd9e-9ce4-4685-8d63-39628830bae8)"><path d="M27.1 0L22.05 0 14-14.1 8.75-14.1 8.75 0 4.5 0 4.5-36 12-36Q17.85-36 21.15-33.33 24.45-30.65 24.45-24.9L24.45-24.9Q24.45-22.85 23.95-21.28 23.45-19.7 22.6-18.5 21.75-17.3 20.6-16.45 19.45-15.6 18.15-15.05L18.15-15.05 27.1 0ZM11.95-32.75L8.75-32.75 8.75-17.35 12.1-17.35Q16-17.35 18.05-19.23 20.1-21.1 20.1-24.9L20.1-24.9Q20.1-28.7 18.25-30.73 16.4-32.75 11.95-32.75L11.95-32.75ZM47.85-15.85L47.85-12.6 36.45-12.6 36.45-3.35 49.3-3.35 49.3 0 32.35 0 32.35-28 49.3-28 49.3-24.65 36.45-24.65 36.45-15.85 47.85-15.85ZM54.8-5.2L58.25-6.8Q58.55-6.1 59.15-5.33 59.75-4.55 60.65-3.9 61.55-3.25 62.77-2.85 64-2.45 65.5-2.45L65.5-2.45Q66.59-2.45 67.7-2.7 68.8-2.95 69.65-3.5 70.5-4.05 71.05-4.93 71.59-5.8 71.59-7.05L71.59-7.05Q71.59-8.3 71.22-9.13 70.84-9.95 69.95-10.58 69.05-11.2 67.55-11.78 66.05-12.35 63.8-13.1L63.8-13.1Q60.2-14.3 58.12-16.1 56.05-17.9 56.05-21.05L56.05-21.05Q56.05-22.45 56.7-23.78 57.34-25.1 58.57-26.13 59.8-27.15 61.57-27.75 63.34-28.35 65.65-28.35L65.65-28.35Q69.09-28.35 71.52-26.9 73.95-25.45 75.25-23.05L75.25-23.05 71.75-21.65Q70.84-23.4 69.42-24.33 68-25.25 65.75-25.25L65.75-25.25Q64.65-25.25 63.59-25.03 62.55-24.8 61.75-24.33 60.95-23.85 60.45-23.13 59.95-22.4 59.95-21.35L59.95-21.35Q59.95-20.3 60.32-19.58 60.7-18.85 61.5-18.25 62.3-17.65 63.59-17.13 64.9-16.6 66.8-15.9L66.8-15.9Q69-15.1 70.65-14.38 72.3-13.65 73.42-12.7 74.55-11.75 75.09-10.45 75.65-9.15 75.65-7.2L75.65-7.2Q75.65-5.45 74.92-4 74.2-2.55 72.87-1.5 71.55-0.45 69.67 0.15 67.8 0.75 65.5 0.75L65.5 0.75Q63.25 0.75 61.47 0.2 59.7-0.35 58.37-1.23 57.05-2.1 56.15-3.15 55.25-4.2 54.8-5.2L54.8-5.2ZM100.49-28L100.49-24.45 92.19-24.45 92.19 0 88.09 0 88.09-24.45 79.89-24.45 79.89-28 100.49-28ZM125.99 0L121.54 0 119.19-6.75 106.69-6.75 104.29 0 100.14 0 110.64-28 115.54-28 125.99 0ZM113.04-24.7L107.79-9.95 118.09-9.95 113.04-24.7ZM130.09-28L134.19-28 134.19-8.75Q134.19-5.9 135.71-4.25 137.24-2.6 140.79-2.6L140.79-2.6Q144.34-2.6 145.89-4.25 147.44-5.9 147.44-8.75L147.44-8.75 147.44-28 151.39-28 151.39-9.05Q151.39-4.65 148.64-1.95 145.89 0.75 140.74 0.75L140.74 0.75Q135.64 0.75 132.86-1.95 130.09-4.65 130.09-9.05L130.09-9.05 130.09-28ZM181.59 0L176.79 0 169.49-10.3 164.19-10.3 164.19 0 160.14 0 160.14-28 167.59-28Q170.14-28 172.24-27.5 174.34-27 175.84-25.9 177.34-24.8 178.19-23.13 179.04-21.45 179.04-19.15L179.04-19.15Q179.04-15.65 177.49-13.75 175.94-11.85 173.54-11L173.54-11 181.59 0ZM167.69-24.9L164.19-24.9 164.19-13.4 167.49-13.4Q171.24-13.4 173.06-14.73 174.89-16.05 174.89-19.15L174.89-19.15Q174.89-22.1 173.06-23.5 171.24-24.9 167.69-24.9L167.69-24.9ZM208.68 0L204.23 0 201.88-6.75 189.38-6.75 186.98 0 182.83 0 193.33-28 198.23-28 208.68 0ZM195.73-24.7L190.48-9.95 200.78-9.95 195.73-24.7ZM229.93-28L233.68-28 233.68 0 227.88 0 217.53-23.4 217.53 0 213.68 0 213.68-28 219.58-28 229.93-4.85 229.93-28ZM260.03-28L260.03-24.45 251.73-24.45 251.73 0 247.63 0 247.63-24.45 239.43-24.45 239.43-28 260.03-28Z" opacity="1" transform="matrix(1,0,0,1,0,0)" fill="black" class="slogan-text-1" id="SvgjsPath1121"></path></svg></g></svg></g></svg></g></svg></g><g><svg viewBox="0 0 245.65351679999992 334.7682500221276" height="334.7682500221276" width="245.65351679999992"><g><svg xmlns="http://www.w3.org/2000/svg" xmlns:xlink="http://www.w3.org/1999/xlink" version="1.1" x="0" y="0" viewBox="17 0 94 128.1" enable-background="new 0 0 128 128" xml:space="preserve" width="245.65351679999992" height="334.7682500221276" class="icon-icon-0" data-fill-palette-color="accent" id="SvgjsSvg1120"><path d="M50 62V36c0-1.1-0.9-2-2-2s-2 0.9-2 2v26c0 1.1 0.9 2 2 2S50 63.1 50 62z" fill="black"></path><path d="M57 62V36c0-1.1-0.9-2-2-2s-2 0.9-2 2v26c0 1.1 0.9 2 2 2S57 63.1 57 62z" fill="black"></path><path d="M60.3 74c0.5-0.4 1-0.7 1.4-1.1 2.2-1.9 3.3-4.5 3.3-8.1V36c0-1.1-0.9-2-2-2s-2 0.9-2 2v28.8c0 2.4-0.6 4-1.9 5.1-0.4 0.3-0.8 0.6-1.2 0.9-1.8 1.3-4.3 3.1-4.3 6.3 0 0 0.4 44 0.4 44.3 0.1 0.9 0.1 1.7 0 2.6 0 0 0 0-0.1 0h-4.8c0 0 0 0-0.1 0-0.1-0.9-0.1-1.7 0-2.6 0-0.4 0.4-44.3 0.4-44.3 0-3.2-2.5-5-4.3-6.3-0.4-0.3-0.8-0.6-1.2-0.9-1.3-1.1-1.9-2.6-1.9-5.1V36c0-1.1-0.9-2-2-2s-2 0.9-2 2v28.8c0 3.6 1.1 6.3 3.3 8.1 0.4 0.4 0.9 0.7 1.4 1.1 1.7 1.2 2.7 2 2.7 3l-0.3 43.1c0 0.4 0 0.7 0 1.1-0.1 2.6-0.3 6.5 3.9 6.8l2.1 0c0 0 3 0 3 0l0.1 0c4.2-0.3 4-4.2 3.9-6.8 0-0.3 0-0.7 0-1l-0.3-43.1C57.6 76 58.6 75.2 60.3 74z" fill="black"></path><path d="M88 77.8c1.8-10.6 5.1-30.3-5.3-42.6-1-1.1-2.6-1.5-4-0.9-1.6 0.5-2.6 2-2.7 3.7v87c-0.1 0.9 0.3 1.8 0.9 2.4 0.5 0.5 1.2 0.7 1.9 0.7 0.3 0 5.2 0 5.2 0 2.5 0 3.9-1.4 3.9-4l-1-38.1c0.1-1.9 0.3-3.7 0.6-5.6C87.7 79.6 87.9 78.7 88 77.8zM84.1 77.2c-0.2 0.9-0.3 1.8-0.4 2.5-0.4 2.1-0.6 4.1-0.6 6.2l1 38c0 0-3.9 0-4 0V38.2C88.8 49.2 85.9 66.7 84.1 77.2z" fill="black"></path><path d="M72 124.9V96H61.8l0.2 24.1c0 0.3 0 0.6 0 1 0.2 1.8 0.1 3.5-0.4 5.2-0.2 0.6-0.4 1.2-0.7 1.7h11.8C72.2 127 72 126 72 124.9z" fill="black"></path><path d="M23 128h19.1c-0.3-0.5-0.6-1.1-0.7-1.7-0.4-1.7-0.5-3.5-0.4-5.2 0-0.3 0-0.6 0-1L41.2 96H31c-1.1 0-2-0.9-2-2s0.9-2 2-2h10.3l0.1-14c-0.3-0.2-0.7-0.5-1-0.7-0.5-0.4-1.1-0.8-1.6-1.2-3.2-2.6-4.8-6.4-4.8-11.2V36c0-3.3 2.7-6 6-6 1.5 0 2.9 0.5 4 1.5 2.1-1.9 5.2-2.1 7.5-0.4 2.3-1.7 5.4-1.5 7.5 0.4 2.5-2.2 6.2-2 8.5 0.4 1 1.1 1.5 2.5 1.5 4v28.8c0 4.8-1.6 8.6-4.8 11.2-0.6 0.5-1.1 0.9-1.6 1.2-0.3 0.2-0.7 0.5-1 0.7l0.1 14H72V37.9c0-3.3 2.2-6.3 5.3-7.4 3-1.2 6.4-0.3 8.5 2.1 11.6 13.8 8.1 34.7 6.2 45.9-0.1 0.9-0.3 1.7-0.4 2.5-0.3 1.6-0.5 3.2-0.5 4.9l0.2 6.2H97c1.1 0 2 0.9 2 2s-0.9 2-2 2h-5.7l0.7 27.9c0 1.4-0.3 2.8-1 4.1h14c3.3 0 6-2.7 6-6V6c0-3.3-2.7-6-6-6H23c-3.3 0-6 2.7-6 6v116C17 125.3 19.7 128 23 128z" fill="black"></path></svg></g></svg></g></svg></g><defs><mask></mask></defs></svg><rect width="395.52" height="198.9571009318899" fill="black" stroke="none" visibility="hidden"></rect></g></mask><linearGradient x1="0.054" x2="0.941" y1="0.5" y2="0.5" id="82934427-3958-4d9a-bb0e-1e13b3c2b2fa"><stop stop-color="#864d25" offset="0"></stop><stop stop-color="#f1c4b3" offset="0.498"></stop><stop stop-color="#864d25" offset="1"></stop></linearGradient><rect width="395.52" height="198.9571009318899" fill="url(#82934427-3958-4d9a-bb0e-1e13b3c2b2fa)" mask="url(#ea29fb53-9266-4eb0-b0ae-baec5752baea)" data-fill-palette-color="primary"></rect><mask id="e29a55ed-181e-44f1-9913-205372fce5d8"><g id="SvgjsG1138"><svg viewBox="0 0 395.52 198.9571009318899" height="198.9571009318899" width="395.52"><g><svg viewBox="0 0 665.5079795019717 334.7682500221276" height="198.9571009318899" width="395.52"><g transform="matrix(1,0,0,1,268.0103795019717,89.00563828204555)"><svg viewBox="0 0 397.4975999999999 156.75697345803647" height="156.75697345803647" width="397.4975999999999"><g id="SvgjsG1137"><svg viewBox="0 0 397.4975999999999 156.75697345803647" height="156.75697345803647" width="397.4975999999999" id="SvgjsSvg1136"><g></g><g transform="matrix(1,0,0,1,0.9887999999999693,0)"><svg viewBox="0 0 395.52 94.70197183098591" height="94.70197183098591" width="395.52"><g transform="matrix(1,0,0,1,0,0)"><svg width="395.52" viewBox="2.59 -41.11 228.79 54.78" height="94.70197183098591" data-palette-color="url(#82934427-3958-4d9a-bb0e-1e13b3c2b2fa)"></svg></g></svg></g><g transform="matrix(1,0,0,1,0,123.3634698149138)"><svg viewBox="0 0 232.209792 33.39350364312267" height="33.39350364312267" width="232.209792"><g transform="matrix(1,0,0,1,0,0)"><svg width="232.209792" viewBox="4.5 -36 255.52999999999997 36.75" height="33.39350364312267" data-palette-color="url(#d637dd9e-9ce4-4685-8d63-39628830bae8)"><path d="M27.1 0L22.05 0 14-14.1 8.75-14.1 8.75 0 4.5 0 4.5-36 12-36Q17.85-36 21.15-33.33 24.45-30.65 24.45-24.9L24.45-24.9Q24.45-22.85 23.95-21.28 23.45-19.7 22.6-18.5 21.75-17.3 20.6-16.45 19.45-15.6 18.15-15.05L18.15-15.05 27.1 0ZM11.95-32.75L8.75-32.75 8.75-17.35 12.1-17.35Q16-17.35 18.05-19.23 20.1-21.1 20.1-24.9L20.1-24.9Q20.1-28.7 18.25-30.73 16.4-32.75 11.95-32.75L11.95-32.75ZM47.85-15.85L47.85-12.6 36.45-12.6 36.45-3.35 49.3-3.35 49.3 0 32.35 0 32.35-28 49.3-28 49.3-24.65 36.45-24.65 36.45-15.85 47.85-15.85ZM54.8-5.2L58.25-6.8Q58.55-6.1 59.15-5.33 59.75-4.55 60.65-3.9 61.55-3.25 62.77-2.85 64-2.45 65.5-2.45L65.5-2.45Q66.59-2.45 67.7-2.7 68.8-2.95 69.65-3.5 70.5-4.05 71.05-4.93 71.59-5.8 71.59-7.05L71.59-7.05Q71.59-8.3 71.22-9.13 70.84-9.95 69.95-10.58 69.05-11.2 67.55-11.78 66.05-12.35 63.8-13.1L63.8-13.1Q60.2-14.3 58.12-16.1 56.05-17.9 56.05-21.05L56.05-21.05Q56.05-22.45 56.7-23.78 57.34-25.1 58.57-26.13 59.8-27.15 61.57-27.75 63.34-28.35 65.65-28.35L65.65-28.35Q69.09-28.35 71.52-26.9 73.95-25.45 75.25-23.05L75.25-23.05 71.75-21.65Q70.84-23.4 69.42-24.33 68-25.25 65.75-25.25L65.75-25.25Q64.65-25.25 63.59-25.03 62.55-24.8 61.75-24.33 60.95-23.85 60.45-23.13 59.95-22.4 59.95-21.35L59.95-21.35Q59.95-20.3 60.32-19.58 60.7-18.85 61.5-18.25 62.3-17.65 63.59-17.13 64.9-16.6 66.8-15.9L66.8-15.9Q69-15.1 70.65-14.38 72.3-13.65 73.42-12.7 74.55-11.75 75.09-10.45 75.65-9.15 75.65-7.2L75.65-7.2Q75.65-5.45 74.92-4 74.2-2.55 72.87-1.5 71.55-0.45 69.67 0.15 67.8 0.75 65.5 0.75L65.5 0.75Q63.25 0.75 61.47 0.2 59.7-0.35 58.37-1.23 57.05-2.1 56.15-3.15 55.25-4.2 54.8-5.2L54.8-5.2ZM100.49-28L100.49-24.45 92.19-24.45 92.19 0 88.09 0 88.09-24.45 79.89-24.45 79.89-28 100.49-28ZM125.99 0L121.54 0 119.19-6.75 106.69-6.75 104.29 0 100.14 0 110.64-28 115.54-28 125.99 0ZM113.04-24.7L107.79-9.95 118.09-9.95 113.04-24.7ZM130.09-28L134.19-28 134.19-8.75Q134.19-5.9 135.71-4.25 137.24-2.6 140.79-2.6L140.79-2.6Q144.34-2.6 145.89-4.25 147.44-5.9 147.44-8.75L147.44-8.75 147.44-28 151.39-28 151.39-9.05Q151.39-4.65 148.64-1.95 145.89 0.75 140.74 0.75L140.74 0.75Q135.64 0.75 132.86-1.95 130.09-4.65 130.09-9.05L130.09-9.05 130.09-28ZM181.59 0L176.79 0 169.49-10.3 164.19-10.3 164.19 0 160.14 0 160.14-28 167.59-28Q170.14-28 172.24-27.5 174.34-27 175.84-25.9 177.34-24.8 178.19-23.13 179.04-21.45 179.04-19.15L179.04-19.15Q179.04-15.65 177.49-13.75 175.94-11.85 173.54-11L173.54-11 181.59 0ZM167.69-24.9L164.19-24.9 164.19-13.4 167.49-13.4Q171.24-13.4 173.06-14.73 174.89-16.05 174.89-19.15L174.89-19.15Q174.89-22.1 173.06-23.5 171.24-24.9 167.69-24.9L167.69-24.9ZM208.68 0L204.23 0 201.88-6.75 189.38-6.75 186.98 0 182.83 0 193.33-28 198.23-28 208.68 0ZM195.73-24.7L190.48-9.95 200.78-9.95 195.73-24.7ZM229.93-28L233.68-28 233.68 0 227.88 0 217.53-23.4 217.53 0 213.68 0 213.68-28 219.58-28 229.93-4.85 229.93-28ZM260.03-28L260.03-24.45 251.73-24.45 251.73 0 247.63 0 247.63-24.45 239.43-24.45 239.43-28 260.03-28Z" opacity="1" transform="matrix(1,0,0,1,0,0)" fill="white" class="slogan-text-1" id="SvgjsPath1135"></path></svg></g></svg></g></svg></g></svg></g><g><svg viewBox="0 0 245.65351679999992 334.7682500221276" height="334.7682500221276" width="245.65351679999992"><g><svg xmlns="http://www.w3.org/2000/svg" xmlns:xlink="http://www.w3.org/1999/xlink" version="1.1" x="0" y="0" viewBox="17 0 94 128.1" enable-background="new 0 0 128 128" xml:space="preserve" width="245.65351679999992" height="334.7682500221276" class="icon-icon-0" data-fill-palette-color="accent" id="SvgjsSvg1134"><path d="M50 62V36c0-1.1-0.9-2-2-2s-2 0.9-2 2v26c0 1.1 0.9 2 2 2S50 63.1 50 62z" fill="black"></path><path d="M57 62V36c0-1.1-0.9-2-2-2s-2 0.9-2 2v26c0 1.1 0.9 2 2 2S57 63.1 57 62z" fill="black"></path><path d="M60.3 74c0.5-0.4 1-0.7 1.4-1.1 2.2-1.9 3.3-4.5 3.3-8.1V36c0-1.1-0.9-2-2-2s-2 0.9-2 2v28.8c0 2.4-0.6 4-1.9 5.1-0.4 0.3-0.8 0.6-1.2 0.9-1.8 1.3-4.3 3.1-4.3 6.3 0 0 0.4 44 0.4 44.3 0.1 0.9 0.1 1.7 0 2.6 0 0 0 0-0.1 0h-4.8c0 0 0 0-0.1 0-0.1-0.9-0.1-1.7 0-2.6 0-0.4 0.4-44.3 0.4-44.3 0-3.2-2.5-5-4.3-6.3-0.4-0.3-0.8-0.6-1.2-0.9-1.3-1.1-1.9-2.6-1.9-5.1V36c0-1.1-0.9-2-2-2s-2 0.9-2 2v28.8c0 3.6 1.1 6.3 3.3 8.1 0.4 0.4 0.9 0.7 1.4 1.1 1.7 1.2 2.7 2 2.7 3l-0.3 43.1c0 0.4 0 0.7 0 1.1-0.1 2.6-0.3 6.5 3.9 6.8l2.1 0c0 0 3 0 3 0l0.1 0c4.2-0.3 4-4.2 3.9-6.8 0-0.3 0-0.7 0-1l-0.3-43.1C57.6 76 58.6 75.2 60.3 74z" fill="black"></path><path d="M88 77.8c1.8-10.6 5.1-30.3-5.3-42.6-1-1.1-2.6-1.5-4-0.9-1.6 0.5-2.6 2-2.7 3.7v87c-0.1 0.9 0.3 1.8 0.9 2.4 0.5 0.5 1.2 0.7 1.9 0.7 0.3 0 5.2 0 5.2 0 2.5 0 3.9-1.4 3.9-4l-1-38.1c0.1-1.9 0.3-3.7 0.6-5.6C87.7 79.6 87.9 78.7 88 77.8zM84.1 77.2c-0.2 0.9-0.3 1.8-0.4 2.5-0.4 2.1-0.6 4.1-0.6 6.2l1 38c0 0-3.9 0-4 0V38.2C88.8 49.2 85.9 66.7 84.1 77.2z" fill="black"></path><path d="M72 124.9V96H61.8l0.2 24.1c0 0.3 0 0.6 0 1 0.2 1.8 0.1 3.5-0.4 5.2-0.2 0.6-0.4 1.2-0.7 1.7h11.8C72.2 127 72 126 72 124.9z" fill="black"></path><path d="M23 128h19.1c-0.3-0.5-0.6-1.1-0.7-1.7-0.4-1.7-0.5-3.5-0.4-5.2 0-0.3 0-0.6 0-1L41.2 96H31c-1.1 0-2-0.9-2-2s0.9-2 2-2h10.3l0.1-14c-0.3-0.2-0.7-0.5-1-0.7-0.5-0.4-1.1-0.8-1.6-1.2-3.2-2.6-4.8-6.4-4.8-11.2V36c0-3.3 2.7-6 6-6 1.5 0 2.9 0.5 4 1.5 2.1-1.9 5.2-2.1 7.5-0.4 2.3-1.7 5.4-1.5 7.5 0.4 2.5-2.2 6.2-2 8.5 0.4 1 1.1 1.5 2.5 1.5 4v28.8c0 4.8-1.6 8.6-4.8 11.2-0.6 0.5-1.1 0.9-1.6 1.2-0.3 0.2-0.7 0.5-1 0.7l0.1 14H72V37.9c0-3.3 2.2-6.3 5.3-7.4 3-1.2 6.4-0.3 8.5 2.1 11.6 13.8 8.1 34.7 6.2 45.9-0.1 0.9-0.3 1.7-0.4 2.5-0.3 1.6-0.5 3.2-0.5 4.9l0.2 6.2H97c1.1 0 2 0.9 2 2s-0.9 2-2 2h-5.7l0.7 27.9c0 1.4-0.3 2.8-1 4.1h14c3.3 0 6-2.7 6-6V6c0-3.3-2.7-6-6-6H23c-3.3 0-6 2.7-6 6v116C17 125.3 19.7 128 23 128z" fill="black"></path></svg></g></svg></g></svg></g><defs><mask></mask></defs><mask><g id="SvgjsG1133"><svg viewBox="0 0 395.52 198.9571009318899" height="198.9571009318899" width="395.52"><g><svg viewBox="0 0 665.5079795019717 334.7682500221276" height="198.9571009318899" width="395.52"><g transform="matrix(1,0,0,1,268.0103795019717,89.00563828204555)"><svg viewBox="0 0 397.4975999999999 156.75697345803647" height="156.75697345803647" width="397.4975999999999"><g id="SvgjsG1132"><svg viewBox="0 0 397.4975999999999 156.75697345803647" height="156.75697345803647" width="397.4975999999999" id="SvgjsSvg1131"><g><rect width="397.4975999999999" height="8.54032155215324" x="0" y="104.76256004687323" fill="black" opacity="1" stroke-width="0" stroke="transparent" fill-opacity="1" class="rect-qz-0" rx="1%" id="SvgjsRect1130" data-palette-color="url(#82934427-3958-4d9a-bb0e-1e13b3c2b2fa)"></rect></g><g transform="matrix(1,0,0,1,0.9887999999999693,0)"><svg viewBox="0 0 395.52 94.70197183098591" height="94.70197183098591" width="395.52"><g transform="matrix(1,0,0,1,0,0)"><svg width="395.52" viewBox="2.59 -41.11 228.79 54.78" height="94.70197183098591" data-palette-color="url(#82934427-3958-4d9a-bb0e-1e13b3c2b2fa)"><path d="M2.59 0L2.59-1.9 6.74-1.9 6.76-35.45 2.59-35.45 2.59-37.35 21-37.35Q26.73-37.35 29.53-34.73 32.32-32.1 32.32-27.98L32.32-27.98Q32.32-23.17 27.88-20.87L27.88-20.87Q26.56-20.19 25.1-19.8L25.1-19.8Q29.81-19.24 32.3-16.77 34.79-14.31 34.79-10.72L34.79-10.72Q34.79-5.79 31.19-2.89 27.59 0 20.9 0L20.9 0 2.59 0ZM13.33-20.31L19.31-20.31Q24.61-20.31 25.63-24.85L25.63-24.85Q25.95-26.22 25.95-27.78L25.95-27.78Q25.95-31.49 24.76-33.15L24.76-33.15Q23.14-35.45 18.65-35.45L18.65-35.45 13.33-35.45 13.33-20.31ZM13.33-1.9L18.99-1.9Q23.44-1.9 25.79-4.03 28.15-6.15 28.15-10.06L28.15-10.06Q28.15-15.8 23.58-17.72L23.58-17.72Q21.92-18.43 19.53-18.43L19.53-18.43 13.33-18.43 13.33-1.9ZM49.61-24.98L49.61-21.61Q53.54-25.39 58.1-25.39L58.1-25.39Q59.57-25.39 60.69-24.41 61.81-23.44 61.81-21.91 61.81-20.39 60.86-19.43 59.91-18.48 58.54-18.48L58.54-18.48Q57.18-18.48 56.24-19.42 55.3-20.36 55.3-21.75L55.3-21.75Q55.3-22.31 55.49-22.9L55.49-22.9Q51.95-21.83 49.61-19.26L49.61-19.26 49.61-1.88 54.95-1.88 54.95 0 39.57 0 39.57-1.88 43.21-1.88 43.21-23.07 39.55-23.07 39.55-24.98 49.61-24.98ZM81.12-2.76L81.12-2.76Q78.29 0.49 73.53 0.49L73.53 0.49Q69.92 0.49 67.3-1.53 64.69-3.54 64.69-6.8 64.69-10.06 67.26-11.93 69.82-13.79 73.86-13.79 77.9-13.79 80.61-11.77L80.61-11.77 80.61-17.58Q80.61-20.53 79.88-21.58 79.15-22.63 78.16-23.05 77.17-23.46 75.97-23.46L75.97-23.46Q74.09-23.46 72.8-23.03 71.5-22.61 71.06-22.17L71.06-22.17Q72.19-21.83 72.8-20.46L72.8-20.46Q72.99-19.97 72.99-19.29L72.99-19.29Q72.99-17.94 72.02-17.05 71.04-16.16 70.06-16.16L70.06-16.16Q68.35-16.16 67.4-17.07 66.45-17.97 66.45-19.24 66.45-20.51 66.91-21.33 67.38-22.14 68.16-22.8L68.16-22.8Q69.65-24.05 71.91-24.71 74.16-25.37 76.14-25.37L76.14-25.37Q81.64-25.37 84.27-23.14 86.91-20.92 86.91-16.94L86.91-16.94 86.91-3.93Q86.91-1.9 87.91-1.9 88.91-1.9 89.84-3.13L89.84-3.13 91.11-2.08Q89.45 0.44 85.69 0.44L85.69 0.44Q84.37 0.44 83.02-0.39 81.66-1.22 81.12-2.76ZM80.68-4.71L80.68-9.59Q78.61-11.62 76.14-11.62 73.68-11.62 72.43-10.46 71.19-9.3 71.19-6.74L71.19-6.74Q71.19-2.95 73.85-2.15L73.85-2.15Q74.6-1.9 75.39-1.9L75.39-1.9Q77.61-1.9 79.63-3.61L79.63-3.61Q80.22-4.13 80.68-4.71L80.68-4.71ZM110.51-23.07L110.51-23.07Q106.54-23.07 103.31-19.38L103.31-19.38 103.31-1.9 107.76-1.9 107.76 0 93.01 0 93.01-1.9 96.97-1.9 96.97-23.07 92.99-23.07 92.99-24.98 103.31-24.98 103.31-21.85Q106.97-25.39 111.69-25.39L111.69-25.39Q114.93-25.39 117.45-23.73L117.45-23.73Q120.7-21.58 120.7-16.89L120.7-16.89 120.7-1.9 124.65-1.9 124.65 0 109.9 0 109.9-1.9 114.35-1.9 114.35-17.38Q114.35-20.24 113.75-21.26 113.15-22.29 112.41-22.68 111.66-23.07 110.51-23.07ZM147.52 0L147.52-2.54Q144.64 0.49 138.91 0.49L138.91 0.49Q137 0.49 134.91-0.26 132.83-1 131.25-2.59 129.68-4.17 128.76-6.63 127.85-9.08 127.85-12.3L127.85-12.3Q127.85-18.36 131.39-21.88 134.93-25.39 140.03-25.39L140.03-25.39Q143.25-25.39 145.99-24.07L145.99-24.07Q146.87-23.66 147.52-23.14L147.52-23.14 147.52-39.21 142.47-39.21 142.47-41.11 153.87-41.11 153.87-1.9 157.49-1.9 157.49 0 147.52 0ZM141.05-23.29L141.05-23.29Q134.68-23.29 134.68-12.55L134.68-12.55Q134.68-4.57 138.12-2.49L138.12-2.49Q139.32-1.76 141.16-1.77 143.01-1.78 144.7-2.78 146.4-3.78 147.52-5.47L147.52-5.47 147.52-20.56Q145.64-22.51 142.74-23.1L142.74-23.1Q141.86-23.29 141.05-23.29ZM160.55 7.85Q161.19 7.18 161.79 6.92 162.39 6.67 163.53 6.67 164.66 6.67 165.48 7.53 166.3 8.4 166.3 9.42 166.3 10.45 165.69 11.28L165.69 11.28Q166.61 11.13 167.57 9.85 168.52 8.57 169.81 5.91L169.81 5.91 172.06 0.49 160.78-23.07 158.17-23.07 158.17-24.98 171.33-24.98 171.33-23.07 167.93-23.07 175.3-6.32 181.9-23.07 177.62-23.07 177.62-24.98 186.78-24.98 186.78-23.07 184.29-23.07 174.62 0.49 171.67 7.13Q169.93 10.57 168.73 11.72 167.52 12.87 166.54 13.27 165.56 13.67 164.51 13.67L164.51 13.67Q162.54 13.67 161.22 12.59 159.9 11.5 159.9 10.01 159.9 8.52 160.55 7.85ZM196.84-24.9L194.78-38.06Q194.59-39.23 195.57-40.17 196.54-41.11 197.9-41.11 199.25-41.11 199.94-40.5L199.94-40.5Q201.18-39.36 200.91-37.99L200.91-37.99 198.74-24.9 196.84-24.9ZM214.83-1.78L214.83-1.78Q214.05-1.25 213.95 0L213.95 0 211.6 0 211.7-7.35 213.95-7.35Q213.95-5.47 216.3-3.49 218.66-1.51 222.27-1.51 225.89-1.51 226.86-3.61L226.86-3.61Q227.13-4.22 227.13-4.88L227.13-4.88Q227.13-6.1 225.46-7.13 223.79-8.15 219.97-9.52 216.14-10.89 213.95-13.05 211.75-15.21 211.75-18.32 211.75-21.44 214.53-23.41 217.32-25.39 220.97-25.39 224.62-25.39 226.84-23.58L226.84-23.58Q227.52-23.8 227.91-24.66L227.91-24.66Q228.06-24.95 228.06-25.37L228.06-25.37 229.91-25.37 229.91-18.55 227.77-18.55Q227.35-20.85 225.56-22.13 223.76-23.41 221.34-23.41 218.93-23.41 217.62-22.47 216.32-21.53 216.32-20.19 216.32-18.85 217.82-17.74 219.32-16.63 222.07-15.66 224.81-14.7 226.37-13.96L226.37-13.96Q231.38-11.55 231.38-6.97 231.38-2.39 226.25-0.32L226.25-0.32Q224.25 0.49 222.17 0.49L222.17 0.49Q217.85 0.49 214.83-1.78Z" opacity="1" transform="matrix(1,0,0,1,0,0)" fill="black" class="wordmark-text-0" id="SvgjsPath1129"></path></svg></g></svg></g><g transform="matrix(1,0,0,1,0,123.3634698149138)"><svg viewBox="0 0 232.209792 33.39350364312267" height="33.39350364312267" width="232.209792"><g transform="matrix(1,0,0,1,0,0)"><svg width="232.209792" viewBox="4.5 -36 255.52999999999997 36.75" height="33.39350364312267" data-palette-color="url(#d637dd9e-9ce4-4685-8d63-39628830bae8)"><path d="M27.1 0L22.05 0 14-14.1 8.75-14.1 8.75 0 4.5 0 4.5-36 12-36Q17.85-36 21.15-33.33 24.45-30.65 24.45-24.9L24.45-24.9Q24.45-22.85 23.95-21.28 23.45-19.7 22.6-18.5 21.75-17.3 20.6-16.45 19.45-15.6 18.15-15.05L18.15-15.05 27.1 0ZM11.95-32.75L8.75-32.75 8.75-17.35 12.1-17.35Q16-17.35 18.05-19.23 20.1-21.1 20.1-24.9L20.1-24.9Q20.1-28.7 18.25-30.73 16.4-32.75 11.95-32.75L11.95-32.75ZM47.85-15.85L47.85-12.6 36.45-12.6 36.45-3.35 49.3-3.35 49.3 0 32.35 0 32.35-28 49.3-28 49.3-24.65 36.45-24.65 36.45-15.85 47.85-15.85ZM54.8-5.2L58.25-6.8Q58.55-6.1 59.15-5.33 59.75-4.55 60.65-3.9 61.55-3.25 62.77-2.85 64-2.45 65.5-2.45L65.5-2.45Q66.59-2.45 67.7-2.7 68.8-2.95 69.65-3.5 70.5-4.05 71.05-4.93 71.59-5.8 71.59-7.05L71.59-7.05Q71.59-8.3 71.22-9.13 70.84-9.95 69.95-10.58 69.05-11.2 67.55-11.78 66.05-12.35 63.8-13.1L63.8-13.1Q60.2-14.3 58.12-16.1 56.05-17.9 56.05-21.05L56.05-21.05Q56.05-22.45 56.7-23.78 57.34-25.1 58.57-26.13 59.8-27.15 61.57-27.75 63.34-28.35 65.65-28.35L65.65-28.35Q69.09-28.35 71.52-26.9 73.95-25.45 75.25-23.05L75.25-23.05 71.75-21.65Q70.84-23.4 69.42-24.33 68-25.25 65.75-25.25L65.75-25.25Q64.65-25.25 63.59-25.03 62.55-24.8 61.75-24.33 60.95-23.85 60.45-23.13 59.95-22.4 59.95-21.35L59.95-21.35Q59.95-20.3 60.32-19.58 60.7-18.85 61.5-18.25 62.3-17.65 63.59-17.13 64.9-16.6 66.8-15.9L66.8-15.9Q69-15.1 70.65-14.38 72.3-13.65 73.42-12.7 74.55-11.75 75.09-10.45 75.65-9.15 75.65-7.2L75.65-7.2Q75.65-5.45 74.92-4 74.2-2.55 72.87-1.5 71.55-0.45 69.67 0.15 67.8 0.75 65.5 0.75L65.5 0.75Q63.25 0.75 61.47 0.2 59.7-0.35 58.37-1.23 57.05-2.1 56.15-3.15 55.25-4.2 54.8-5.2L54.8-5.2ZM100.49-28L100.49-24.45 92.19-24.45 92.19 0 88.09 0 88.09-24.45 79.89-24.45 79.89-28 100.49-28ZM125.99 0L121.54 0 119.19-6.75 106.69-6.75 104.29 0 100.14 0 110.64-28 115.54-28 125.99 0ZM113.04-24.7L107.79-9.95 118.09-9.95 113.04-24.7ZM130.09-28L134.19-28 134.19-8.75Q134.19-5.9 135.71-4.25 137.24-2.6 140.79-2.6L140.79-2.6Q144.34-2.6 145.89-4.25 147.44-5.9 147.44-8.75L147.44-8.75 147.44-28 151.39-28 151.39-9.05Q151.39-4.65 148.64-1.95 145.89 0.75 140.74 0.75L140.74 0.75Q135.64 0.75 132.86-1.95 130.09-4.65 130.09-9.05L130.09-9.05 130.09-28ZM181.59 0L176.79 0 169.49-10.3 164.19-10.3 164.19 0 160.14 0 160.14-28 167.59-28Q170.14-28 172.24-27.5 174.34-27 175.84-25.9 177.34-24.8 178.19-23.13 179.04-21.45 179.04-19.15L179.04-19.15Q179.04-15.65 177.49-13.75 175.94-11.85 173.54-11L173.54-11 181.59 0ZM167.69-24.9L164.19-24.9 164.19-13.4 167.49-13.4Q171.24-13.4 173.06-14.73 174.89-16.05 174.89-19.15L174.89-19.15Q174.89-22.1 173.06-23.5 171.24-24.9 167.69-24.9L167.69-24.9ZM208.68 0L204.23 0 201.88-6.75 189.38-6.75 186.98 0 182.83 0 193.33-28 198.23-28 208.68 0ZM195.73-24.7L190.48-9.95 200.78-9.95 195.73-24.7ZM229.93-28L233.68-28 233.68 0 227.88 0 217.53-23.4 217.53 0 213.68 0 213.68-28 219.58-28 229.93-4.85 229.93-28ZM260.03-28L260.03-24.45 251.73-24.45 251.73 0 247.63 0 247.63-24.45 239.43-24.45 239.43-28 260.03-28Z" opacity="1" transform="matrix(1,0,0,1,0,0)" fill="black" class="slogan-text-1" id="SvgjsPath1128"></path></svg></g></svg></g></svg></g></svg></g><g><svg viewBox="0 0 245.65351679999992 334.7682500221276" height="334.7682500221276" width="245.65351679999992"><g><svg xmlns="http://www.w3.org/2000/svg" xmlns:xlink="http://www.w3.org/1999/xlink" version="1.1" x="0" y="0" viewBox="17 0 94 128.1" enable-background="new 0 0 128 128" xml:space="preserve" width="245.65351679999992" height="334.7682500221276" class="icon-icon-0" data-fill-palette-color="accent" id="SvgjsSvg1127"><path d="M50 62V36c0-1.1-0.9-2-2-2s-2 0.9-2 2v26c0 1.1 0.9 2 2 2S50 63.1 50 62z" fill="black"></path><path d="M57 62V36c0-1.1-0.9-2-2-2s-2 0.9-2 2v26c0 1.1 0.9 2 2 2S57 63.1 57 62z" fill="black"></path><path d="M60.3 74c0.5-0.4 1-0.7 1.4-1.1 2.2-1.9 3.3-4.5 3.3-8.1V36c0-1.1-0.9-2-2-2s-2 0.9-2 2v28.8c0 2.4-0.6 4-1.9 5.1-0.4 0.3-0.8 0.6-1.2 0.9-1.8 1.3-4.3 3.1-4.3 6.3 0 0 0.4 44 0.4 44.3 0.1 0.9 0.1 1.7 0 2.6 0 0 0 0-0.1 0h-4.8c0 0 0 0-0.1 0-0.1-0.9-0.1-1.7 0-2.6 0-0.4 0.4-44.3 0.4-44.3 0-3.2-2.5-5-4.3-6.3-0.4-0.3-0.8-0.6-1.2-0.9-1.3-1.1-1.9-2.6-1.9-5.1V36c0-1.1-0.9-2-2-2s-2 0.9-2 2v28.8c0 3.6 1.1 6.3 3.3 8.1 0.4 0.4 0.9 0.7 1.4 1.1 1.7 1.2 2.7 2 2.7 3l-0.3 43.1c0 0.4 0 0.7 0 1.1-0.1 2.6-0.3 6.5 3.9 6.8l2.1 0c0 0 3 0 3 0l0.1 0c4.2-0.3 4-4.2 3.9-6.8 0-0.3 0-0.7 0-1l-0.3-43.1C57.6 76 58.6 75.2 60.3 74z" fill="black"></path><path d="M88 77.8c1.8-10.6 5.1-30.3-5.3-42.6-1-1.1-2.6-1.5-4-0.9-1.6 0.5-2.6 2-2.7 3.7v87c-0.1 0.9 0.3 1.8 0.9 2.4 0.5 0.5 1.2 0.7 1.9 0.7 0.3 0 5.2 0 5.2 0 2.5 0 3.9-1.4 3.9-4l-1-38.1c0.1-1.9 0.3-3.7 0.6-5.6C87.7 79.6 87.9 78.7 88 77.8zM84.1 77.2c-0.2 0.9-0.3 1.8-0.4 2.5-0.4 2.1-0.6 4.1-0.6 6.2l1 38c0 0-3.9 0-4 0V38.2C88.8 49.2 85.9 66.7 84.1 77.2z" fill="black"></path><path d="M72 124.9V96H61.8l0.2 24.1c0 0.3 0 0.6 0 1 0.2 1.8 0.1 3.5-0.4 5.2-0.2 0.6-0.4 1.2-0.7 1.7h11.8C72.2 127 72 126 72 124.9z" fill="black"></path><path d="M23 128h19.1c-0.3-0.5-0.6-1.1-0.7-1.7-0.4-1.7-0.5-3.5-0.4-5.2 0-0.3 0-0.6 0-1L41.2 96H31c-1.1 0-2-0.9-2-2s0.9-2 2-2h10.3l0.1-14c-0.3-0.2-0.7-0.5-1-0.7-0.5-0.4-1.1-0.8-1.6-1.2-3.2-2.6-4.8-6.4-4.8-11.2V36c0-3.3 2.7-6 6-6 1.5 0 2.9 0.5 4 1.5 2.1-1.9 5.2-2.1 7.5-0.4 2.3-1.7 5.4-1.5 7.5 0.4 2.5-2.2 6.2-2 8.5 0.4 1 1.1 1.5 2.5 1.5 4v28.8c0 4.8-1.6 8.6-4.8 11.2-0.6 0.5-1.1 0.9-1.6 1.2-0.3 0.2-0.7 0.5-1 0.7l0.1 14H72V37.9c0-3.3 2.2-6.3 5.3-7.4 3-1.2 6.4-0.3 8.5 2.1 11.6 13.8 8.1 34.7 6.2 45.9-0.1 0.9-0.3 1.7-0.4 2.5-0.3 1.6-0.5 3.2-0.5 4.9l0.2 6.2H97c1.1 0 2 0.9 2 2s-0.9 2-2 2h-5.7l0.7 27.9c0 1.4-0.3 2.8-1 4.1h14c3.3 0 6-2.7 6-6V6c0-3.3-2.7-6-6-6H23c-3.3 0-6 2.7-6 6v116C17 125.3 19.7 128 23 128z" fill="black"></path></svg></g></svg></g></svg></g><defs><mask></mask></defs></svg><rect width="395.52" height="198.9571009318899" fill="black" stroke="none" visibility="hidden"></rect></g></mask></svg><rect width="395.52" height="198.9571009318899" fill="black" stroke="none" visibility="hidden"></rect></g></mask><linearGradient x1="0.054" x2="0.941" y1="0.5" y2="0.5" id="d637dd9e-9ce4-4685-8d63-39628830bae8"><stop stop-color="#864d25" offset="0"></stop><stop stop-color="#f1c4b3" offset="0.498"></stop><stop stop-color="#864d25" offset="1"></stop></linearGradient><rect width="395.52" height="198.9571009318899" fill="url(#d637dd9e-9ce4-4685-8d63-39628830bae8)" mask="url(#e29a55ed-181e-44f1-9913-205372fce5d8)" data-fill-palette-color="secondary"></rect><mask id="5f1e4d08-a1d3-496d-a51f-c13708936443"><g id="SvgjsG1161"><svg viewBox="0 0 395.52 198.9571009318899" height="198.9571009318899" width="395.52"><g><svg viewBox="0 0 665.5079795019717 334.7682500221276" height="198.9571009318899" width="395.52"><g transform="matrix(1,0,0,1,268.0103795019717,89.00563828204555)"><svg viewBox="0 0 397.4975999999999 156.75697345803647" height="156.75697345803647" width="397.4975999999999"><g id="SvgjsG1160"><svg viewBox="0 0 397.4975999999999 156.75697345803647" height="156.75697345803647" width="397.4975999999999" id="SvgjsSvg1159"><g></g><g transform="matrix(1,0,0,1,0.9887999999999693,0)"><svg viewBox="0 0 395.52 94.70197183098591" height="94.70197183098591" width="395.52"><g transform="matrix(1,0,0,1,0,0)"><svg width="395.52" viewBox="2.59 -41.11 228.79 54.78" height="94.70197183098591" data-palette-color="url(#82934427-3958-4d9a-bb0e-1e13b3c2b2fa)"></svg></g></svg></g><g transform="matrix(1,0,0,1,0,123.3634698149138)"><svg viewBox="0 0 232.209792 33.39350364312267" height="33.39350364312267" width="232.209792"><g transform="matrix(1,0,0,1,0,0)"><svg width="232.209792" viewBox="4.5 -36 255.52999999999997 36.75" height="33.39350364312267" data-palette-color="url(#d637dd9e-9ce4-4685-8d63-39628830bae8)"></svg></g></svg></g></svg></g></svg></g><g><svg viewBox="0 0 245.65351679999992 334.7682500221276" height="334.7682500221276" width="245.65351679999992"><g><svg xmlns="http://www.w3.org/2000/svg" xmlns:xlink="http://www.w3.org/1999/xlink" version="1.1" x="0" y="0" viewBox="17 0 94 128.1" enable-background="new 0 0 128 128" xml:space="preserve" width="245.65351679999992" height="334.7682500221276" class="icon-icon-0" data-fill-palette-color="accent" id="SvgjsSvg1158"><path d="M50 62V36c0-1.1-0.9-2-2-2s-2 0.9-2 2v26c0 1.1 0.9 2 2 2S50 63.1 50 62z" fill="white"></path><path d="M57 62V36c0-1.1-0.9-2-2-2s-2 0.9-2 2v26c0 1.1 0.9 2 2 2S57 63.1 57 62z" fill="white"></path><path d="M60.3 74c0.5-0.4 1-0.7 1.4-1.1 2.2-1.9 3.3-4.5 3.3-8.1V36c0-1.1-0.9-2-2-2s-2 0.9-2 2v28.8c0 2.4-0.6 4-1.9 5.1-0.4 0.3-0.8 0.6-1.2 0.9-1.8 1.3-4.3 3.1-4.3 6.3 0 0 0.4 44 0.4 44.3 0.1 0.9 0.1 1.7 0 2.6 0 0 0 0-0.1 0h-4.8c0 0 0 0-0.1 0-0.1-0.9-0.1-1.7 0-2.6 0-0.4 0.4-44.3 0.4-44.3 0-3.2-2.5-5-4.3-6.3-0.4-0.3-0.8-0.6-1.2-0.9-1.3-1.1-1.9-2.6-1.9-5.1V36c0-1.1-0.9-2-2-2s-2 0.9-2 2v28.8c0 3.6 1.1 6.3 3.3 8.1 0.4 0.4 0.9 0.7 1.4 1.1 1.7 1.2 2.7 2 2.7 3l-0.3 43.1c0 0.4 0 0.7 0 1.1-0.1 2.6-0.3 6.5 3.9 6.8l2.1 0c0 0 3 0 3 0l0.1 0c4.2-0.3 4-4.2 3.9-6.8 0-0.3 0-0.7 0-1l-0.3-43.1C57.6 76 58.6 75.2 60.3 74z" fill="white"></path><path d="M88 77.8c1.8-10.6 5.1-30.3-5.3-42.6-1-1.1-2.6-1.5-4-0.9-1.6 0.5-2.6 2-2.7 3.7v87c-0.1 0.9 0.3 1.8 0.9 2.4 0.5 0.5 1.2 0.7 1.9 0.7 0.3 0 5.2 0 5.2 0 2.5 0 3.9-1.4 3.9-4l-1-38.1c0.1-1.9 0.3-3.7 0.6-5.6C87.7 79.6 87.9 78.7 88 77.8zM84.1 77.2c-0.2 0.9-0.3 1.8-0.4 2.5-0.4 2.1-0.6 4.1-0.6 6.2l1 38c0 0-3.9 0-4 0V38.2C88.8 49.2 85.9 66.7 84.1 77.2z" fill="white"></path><path d="M72 124.9V96H61.8l0.2 24.1c0 0.3 0 0.6 0 1 0.2 1.8 0.1 3.5-0.4 5.2-0.2 0.6-0.4 1.2-0.7 1.7h11.8C72.2 127 72 126 72 124.9z" fill="white"></path><path d="M23 128h19.1c-0.3-0.5-0.6-1.1-0.7-1.7-0.4-1.7-0.5-3.5-0.4-5.2 0-0.3 0-0.6 0-1L41.2 96H31c-1.1 0-2-0.9-2-2s0.9-2 2-2h10.3l0.1-14c-0.3-0.2-0.7-0.5-1-0.7-0.5-0.4-1.1-0.8-1.6-1.2-3.2-2.6-4.8-6.4-4.8-11.2V36c0-3.3 2.7-6 6-6 1.5 0 2.9 0.5 4 1.5 2.1-1.9 5.2-2.1 7.5-0.4 2.3-1.7 5.4-1.5 7.5 0.4 2.5-2.2 6.2-2 8.5 0.4 1 1.1 1.5 2.5 1.5 4v28.8c0 4.8-1.6 8.6-4.8 11.2-0.6 0.5-1.1 0.9-1.6 1.2-0.3 0.2-0.7 0.5-1 0.7l0.1 14H72V37.9c0-3.3 2.2-6.3 5.3-7.4 3-1.2 6.4-0.3 8.5 2.1 11.6 13.8 8.1 34.7 6.2 45.9-0.1 0.9-0.3 1.7-0.4 2.5-0.3 1.6-0.5 3.2-0.5 4.9l0.2 6.2H97c1.1 0 2 0.9 2 2s-0.9 2-2 2h-5.7l0.7 27.9c0 1.4-0.3 2.8-1 4.1h14c3.3 0 6-2.7 6-6V6c0-3.3-2.7-6-6-6H23c-3.3 0-6 2.7-6 6v116C17 125.3 19.7 128 23 128z" fill="white"></path></svg></g></svg></g></svg></g><defs><mask></mask></defs><mask><g id="SvgjsG1157"><svg viewBox="0 0 395.52 198.9571009318899" height="198.9571009318899" width="395.52"><g><svg viewBox="0 0 665.5079795019717 334.7682500221276" height="198.9571009318899" width="395.52"><g transform="matrix(1,0,0,1,268.0103795019717,89.00563828204555)"><svg viewBox="0 0 397.4975999999999 156.75697345803647" height="156.75697345803647" width="397.4975999999999"><g id="SvgjsG1156"><svg viewBox="0 0 397.4975999999999 156.75697345803647" height="156.75697345803647" width="397.4975999999999" id="SvgjsSvg1155"><g><rect width="397.4975999999999" height="8.54032155215324" x="0" y="104.76256004687323" fill="black" opacity="1" stroke-width="0" stroke="transparent" fill-opacity="1" class="rect-qz-0" rx="1%" id="SvgjsRect1154" data-palette-color="url(#82934427-3958-4d9a-bb0e-1e13b3c2b2fa)"></rect></g><g transform="matrix(1,0,0,1,0.9887999999999693,0)"><svg viewBox="0 0 395.52 94.70197183098591" height="94.70197183098591" width="395.52"><g transform="matrix(1,0,0,1,0,0)"><svg width="395.52" viewBox="2.59 -41.11 228.79 54.78" height="94.70197183098591" data-palette-color="url(#82934427-3958-4d9a-bb0e-1e13b3c2b2fa)"><path d="M2.59 0L2.59-1.9 6.74-1.9 6.76-35.45 2.59-35.45 2.59-37.35 21-37.35Q26.73-37.35 29.53-34.73 32.32-32.1 32.32-27.98L32.32-27.98Q32.32-23.17 27.88-20.87L27.88-20.87Q26.56-20.19 25.1-19.8L25.1-19.8Q29.81-19.24 32.3-16.77 34.79-14.31 34.79-10.72L34.79-10.72Q34.79-5.79 31.19-2.89 27.59 0 20.9 0L20.9 0 2.59 0ZM13.33-20.31L19.31-20.31Q24.61-20.31 25.63-24.85L25.63-24.85Q25.95-26.22 25.95-27.78L25.95-27.78Q25.95-31.49 24.76-33.15L24.76-33.15Q23.14-35.45 18.65-35.45L18.65-35.45 13.33-35.45 13.33-20.31ZM13.33-1.9L18.99-1.9Q23.44-1.9 25.79-4.03 28.15-6.15 28.15-10.06L28.15-10.06Q28.15-15.8 23.58-17.72L23.58-17.72Q21.92-18.43 19.53-18.43L19.53-18.43 13.33-18.43 13.33-1.9ZM49.61-24.98L49.61-21.61Q53.54-25.39 58.1-25.39L58.1-25.39Q59.57-25.39 60.69-24.41 61.81-23.44 61.81-21.91 61.81-20.39 60.86-19.43 59.91-18.48 58.54-18.48L58.54-18.48Q57.18-18.48 56.24-19.42 55.3-20.36 55.3-21.75L55.3-21.75Q55.3-22.31 55.49-22.9L55.49-22.9Q51.95-21.83 49.61-19.26L49.61-19.26 49.61-1.88 54.95-1.88 54.95 0 39.57 0 39.57-1.88 43.21-1.88 43.21-23.07 39.55-23.07 39.55-24.98 49.61-24.98ZM81.12-2.76L81.12-2.76Q78.29 0.49 73.53 0.49L73.53 0.49Q69.92 0.49 67.3-1.53 64.69-3.54 64.69-6.8 64.69-10.06 67.26-11.93 69.82-13.79 73.86-13.79 77.9-13.79 80.61-11.77L80.61-11.77 80.61-17.58Q80.61-20.53 79.88-21.58 79.15-22.63 78.16-23.05 77.17-23.46 75.97-23.46L75.97-23.46Q74.09-23.46 72.8-23.03 71.5-22.61 71.06-22.17L71.06-22.17Q72.19-21.83 72.8-20.46L72.8-20.46Q72.99-19.97 72.99-19.29L72.99-19.29Q72.99-17.94 72.02-17.05 71.04-16.16 70.06-16.16L70.06-16.16Q68.35-16.16 67.4-17.07 66.45-17.97 66.45-19.24 66.45-20.51 66.91-21.33 67.38-22.14 68.16-22.8L68.16-22.8Q69.65-24.05 71.91-24.71 74.16-25.37 76.14-25.37L76.14-25.37Q81.64-25.37 84.27-23.14 86.91-20.92 86.91-16.94L86.91-16.94 86.91-3.93Q86.91-1.9 87.91-1.9 88.91-1.9 89.84-3.13L89.84-3.13 91.11-2.08Q89.45 0.44 85.69 0.44L85.69 0.44Q84.37 0.44 83.02-0.39 81.66-1.22 81.12-2.76ZM80.68-4.71L80.68-9.59Q78.61-11.62 76.14-11.62 73.68-11.62 72.43-10.46 71.19-9.3 71.19-6.74L71.19-6.74Q71.19-2.95 73.85-2.15L73.85-2.15Q74.6-1.9 75.39-1.9L75.39-1.9Q77.61-1.9 79.63-3.61L79.63-3.61Q80.22-4.13 80.68-4.71L80.68-4.71ZM110.51-23.07L110.51-23.07Q106.54-23.07 103.31-19.38L103.31-19.38 103.31-1.9 107.76-1.9 107.76 0 93.01 0 93.01-1.9 96.97-1.9 96.97-23.07 92.99-23.07 92.99-24.98 103.31-24.98 103.31-21.85Q106.97-25.39 111.69-25.39L111.69-25.39Q114.93-25.39 117.45-23.73L117.45-23.73Q120.7-21.58 120.7-16.89L120.7-16.89 120.7-1.9 124.65-1.9 124.65 0 109.9 0 109.9-1.9 114.35-1.9 114.35-17.38Q114.35-20.24 113.75-21.26 113.15-22.29 112.41-22.68 111.66-23.07 110.51-23.07ZM147.52 0L147.52-2.54Q144.64 0.49 138.91 0.49L138.91 0.49Q137 0.49 134.91-0.26 132.83-1 131.25-2.59 129.68-4.17 128.76-6.63 127.85-9.08 127.85-12.3L127.85-12.3Q127.85-18.36 131.39-21.88 134.93-25.39 140.03-25.39L140.03-25.39Q143.25-25.39 145.99-24.07L145.99-24.07Q146.87-23.66 147.52-23.14L147.52-23.14 147.52-39.21 142.47-39.21 142.47-41.11 153.87-41.11 153.87-1.9 157.49-1.9 157.49 0 147.52 0ZM141.05-23.29L141.05-23.29Q134.68-23.29 134.68-12.55L134.68-12.55Q134.68-4.57 138.12-2.49L138.12-2.49Q139.32-1.76 141.16-1.77 143.01-1.78 144.7-2.78 146.4-3.78 147.52-5.47L147.52-5.47 147.52-20.56Q145.64-22.51 142.74-23.1L142.74-23.1Q141.86-23.29 141.05-23.29ZM160.55 7.85Q161.19 7.18 161.79 6.92 162.39 6.67 163.53 6.67 164.66 6.67 165.48 7.53 166.3 8.4 166.3 9.42 166.3 10.45 165.69 11.28L165.69 11.28Q166.61 11.13 167.57 9.85 168.52 8.57 169.81 5.91L169.81 5.91 172.06 0.49 160.78-23.07 158.17-23.07 158.17-24.98 171.33-24.98 171.33-23.07 167.93-23.07 175.3-6.32 181.9-23.07 177.62-23.07 177.62-24.98 186.78-24.98 186.78-23.07 184.29-23.07 174.62 0.49 171.67 7.13Q169.93 10.57 168.73 11.72 167.52 12.87 166.54 13.27 165.56 13.67 164.51 13.67L164.51 13.67Q162.54 13.67 161.22 12.59 159.9 11.5 159.9 10.01 159.9 8.52 160.55 7.85ZM196.84-24.9L194.78-38.06Q194.59-39.23 195.57-40.17 196.54-41.11 197.9-41.11 199.25-41.11 199.94-40.5L199.94-40.5Q201.18-39.36 200.91-37.99L200.91-37.99 198.74-24.9 196.84-24.9ZM214.83-1.78L214.83-1.78Q214.05-1.25 213.95 0L213.95 0 211.6 0 211.7-7.35 213.95-7.35Q213.95-5.47 216.3-3.49 218.66-1.51 222.27-1.51 225.89-1.51 226.86-3.61L226.86-3.61Q227.13-4.22 227.13-4.88L227.13-4.88Q227.13-6.1 225.46-7.13 223.79-8.15 219.97-9.52 216.14-10.89 213.95-13.05 211.75-15.21 211.75-18.32 211.75-21.44 214.53-23.41 217.32-25.39 220.97-25.39 224.62-25.39 226.84-23.58L226.84-23.58Q227.52-23.8 227.91-24.66L227.91-24.66Q228.06-24.95 228.06-25.37L228.06-25.37 229.91-25.37 229.91-18.55 227.77-18.55Q227.35-20.85 225.56-22.13 223.76-23.41 221.34-23.41 218.93-23.41 217.62-22.47 216.32-21.53 216.32-20.19 216.32-18.85 217.82-17.74 219.32-16.63 222.07-15.66 224.81-14.7 226.37-13.96L226.37-13.96Q231.38-11.55 231.38-6.97 231.38-2.39 226.25-0.32L226.25-0.32Q224.25 0.49 222.17 0.49L222.17 0.49Q217.85 0.49 214.83-1.78Z" opacity="1" transform="matrix(1,0,0,1,0,0)" fill="black" class="wordmark-text-0" id="SvgjsPath1153"></path></svg></g></svg></g><g transform="matrix(1,0,0,1,0,123.3634698149138)"><svg viewBox="0 0 232.209792 33.39350364312267" height="33.39350364312267" width="232.209792"><g transform="matrix(1,0,0,1,0,0)"><svg width="232.209792" viewBox="4.5 -36 255.52999999999997 36.75" height="33.39350364312267" data-palette-color="url(#d637dd9e-9ce4-4685-8d63-39628830bae8)"><path d="M27.1 0L22.05 0 14-14.1 8.75-14.1 8.75 0 4.5 0 4.5-36 12-36Q17.85-36 21.15-33.33 24.45-30.65 24.45-24.9L24.45-24.9Q24.45-22.85 23.95-21.28 23.45-19.7 22.6-18.5 21.75-17.3 20.6-16.45 19.45-15.6 18.15-15.05L18.15-15.05 27.1 0ZM11.95-32.75L8.75-32.75 8.75-17.35 12.1-17.35Q16-17.35 18.05-19.23 20.1-21.1 20.1-24.9L20.1-24.9Q20.1-28.7 18.25-30.73 16.4-32.75 11.95-32.75L11.95-32.75ZM47.85-15.85L47.85-12.6 36.45-12.6 36.45-3.35 49.3-3.35 49.3 0 32.35 0 32.35-28 49.3-28 49.3-24.65 36.45-24.65 36.45-15.85 47.85-15.85ZM54.8-5.2L58.25-6.8Q58.55-6.1 59.15-5.33 59.75-4.55 60.65-3.9 61.55-3.25 62.77-2.85 64-2.45 65.5-2.45L65.5-2.45Q66.59-2.45 67.7-2.7 68.8-2.95 69.65-3.5 70.5-4.05 71.05-4.93 71.59-5.8 71.59-7.05L71.59-7.05Q71.59-8.3 71.22-9.13 70.84-9.95 69.95-10.58 69.05-11.2 67.55-11.78 66.05-12.35 63.8-13.1L63.8-13.1Q60.2-14.3 58.12-16.1 56.05-17.9 56.05-21.05L56.05-21.05Q56.05-22.45 56.7-23.78 57.34-25.1 58.57-26.13 59.8-27.15 61.57-27.75 63.34-28.35 65.65-28.35L65.65-28.35Q69.09-28.35 71.52-26.9 73.95-25.45 75.25-23.05L75.25-23.05 71.75-21.65Q70.84-23.4 69.42-24.33 68-25.25 65.75-25.25L65.75-25.25Q64.65-25.25 63.59-25.03 62.55-24.8 61.75-24.33 60.95-23.85 60.45-23.13 59.95-22.4 59.95-21.35L59.95-21.35Q59.95-20.3 60.32-19.58 60.7-18.85 61.5-18.25 62.3-17.65 63.59-17.13 64.9-16.6 66.8-15.9L66.8-15.9Q69-15.1 70.65-14.38 72.3-13.65 73.42-12.7 74.55-11.75 75.09-10.45 75.65-9.15 75.65-7.2L75.65-7.2Q75.65-5.45 74.92-4 74.2-2.55 72.87-1.5 71.55-0.45 69.67 0.15 67.8 0.75 65.5 0.75L65.5 0.75Q63.25 0.75 61.47 0.2 59.7-0.35 58.37-1.23 57.05-2.1 56.15-3.15 55.25-4.2 54.8-5.2L54.8-5.2ZM100.49-28L100.49-24.45 92.19-24.45 92.19 0 88.09 0 88.09-24.45 79.89-24.45 79.89-28 100.49-28ZM125.99 0L121.54 0 119.19-6.75 106.69-6.75 104.29 0 100.14 0 110.64-28 115.54-28 125.99 0ZM113.04-24.7L107.79-9.95 118.09-9.95 113.04-24.7ZM130.09-28L134.19-28 134.19-8.75Q134.19-5.9 135.71-4.25 137.24-2.6 140.79-2.6L140.79-2.6Q144.34-2.6 145.89-4.25 147.44-5.9 147.44-8.75L147.44-8.75 147.44-28 151.39-28 151.39-9.05Q151.39-4.65 148.64-1.95 145.89 0.75 140.74 0.75L140.74 0.75Q135.64 0.75 132.86-1.95 130.09-4.65 130.09-9.05L130.09-9.05 130.09-28ZM181.59 0L176.79 0 169.49-10.3 164.19-10.3 164.19 0 160.14 0 160.14-28 167.59-28Q170.14-28 172.24-27.5 174.34-27 175.84-25.9 177.34-24.8 178.19-23.13 179.04-21.45 179.04-19.15L179.04-19.15Q179.04-15.65 177.49-13.75 175.94-11.85 173.54-11L173.54-11 181.59 0ZM167.69-24.9L164.19-24.9 164.19-13.4 167.49-13.4Q171.24-13.4 173.06-14.73 174.89-16.05 174.89-19.15L174.89-19.15Q174.89-22.1 173.06-23.5 171.24-24.9 167.69-24.9L167.69-24.9ZM208.68 0L204.23 0 201.88-6.75 189.38-6.75 186.98 0 182.83 0 193.33-28 198.23-28 208.68 0ZM195.73-24.7L190.48-9.95 200.78-9.95 195.73-24.7ZM229.93-28L233.68-28 233.68 0 227.88 0 217.53-23.4 217.53 0 213.68 0 213.68-28 219.58-28 229.93-4.85 229.93-28ZM260.03-28L260.03-24.45 251.73-24.45 251.73 0 247.63 0 247.63-24.45 239.43-24.45 239.43-28 260.03-28Z" opacity="1" transform="matrix(1,0,0,1,0,0)" fill="black" class="slogan-text-1" id="SvgjsPath1152"></path></svg></g></svg></g></svg></g></svg></g><g><svg viewBox="0 0 245.65351679999992 334.7682500221276" height="334.7682500221276" width="245.65351679999992"><g><svg xmlns="http://www.w3.org/2000/svg" xmlns:xlink="http://www.w3.org/1999/xlink" version="1.1" x="0" y="0" viewBox="17 0 94 128.1" enable-background="new 0 0 128 128" xml:space="preserve" width="245.65351679999992" height="334.7682500221276" class="icon-icon-0" data-fill-palette-color="accent" id="SvgjsSvg1151"><path d="M50 62V36c0-1.1-0.9-2-2-2s-2 0.9-2 2v26c0 1.1 0.9 2 2 2S50 63.1 50 62z" fill="black"></path><path d="M57 62V36c0-1.1-0.9-2-2-2s-2 0.9-2 2v26c0 1.1 0.9 2 2 2S57 63.1 57 62z" fill="black"></path><path d="M60.3 74c0.5-0.4 1-0.7 1.4-1.1 2.2-1.9 3.3-4.5 3.3-8.1V36c0-1.1-0.9-2-2-2s-2 0.9-2 2v28.8c0 2.4-0.6 4-1.9 5.1-0.4 0.3-0.8 0.6-1.2 0.9-1.8 1.3-4.3 3.1-4.3 6.3 0 0 0.4 44 0.4 44.3 0.1 0.9 0.1 1.7 0 2.6 0 0 0 0-0.1 0h-4.8c0 0 0 0-0.1 0-0.1-0.9-0.1-1.7 0-2.6 0-0.4 0.4-44.3 0.4-44.3 0-3.2-2.5-5-4.3-6.3-0.4-0.3-0.8-0.6-1.2-0.9-1.3-1.1-1.9-2.6-1.9-5.1V36c0-1.1-0.9-2-2-2s-2 0.9-2 2v28.8c0 3.6 1.1 6.3 3.3 8.1 0.4 0.4 0.9 0.7 1.4 1.1 1.7 1.2 2.7 2 2.7 3l-0.3 43.1c0 0.4 0 0.7 0 1.1-0.1 2.6-0.3 6.5 3.9 6.8l2.1 0c0 0 3 0 3 0l0.1 0c4.2-0.3 4-4.2 3.9-6.8 0-0.3 0-0.7 0-1l-0.3-43.1C57.6 76 58.6 75.2 60.3 74z" fill="black"></path><path d="M88 77.8c1.8-10.6 5.1-30.3-5.3-42.6-1-1.1-2.6-1.5-4-0.9-1.6 0.5-2.6 2-2.7 3.7v87c-0.1 0.9 0.3 1.8 0.9 2.4 0.5 0.5 1.2 0.7 1.9 0.7 0.3 0 5.2 0 5.2 0 2.5 0 3.9-1.4 3.9-4l-1-38.1c0.1-1.9 0.3-3.7 0.6-5.6C87.7 79.6 87.9 78.7 88 77.8zM84.1 77.2c-0.2 0.9-0.3 1.8-0.4 2.5-0.4 2.1-0.6 4.1-0.6 6.2l1 38c0 0-3.9 0-4 0V38.2C88.8 49.2 85.9 66.7 84.1 77.2z" fill="black"></path><path d="M72 124.9V96H61.8l0.2 24.1c0 0.3 0 0.6 0 1 0.2 1.8 0.1 3.5-0.4 5.2-0.2 0.6-0.4 1.2-0.7 1.7h11.8C72.2 127 72 126 72 124.9z" fill="black"></path><path d="M23 128h19.1c-0.3-0.5-0.6-1.1-0.7-1.7-0.4-1.7-0.5-3.5-0.4-5.2 0-0.3 0-0.6 0-1L41.2 96H31c-1.1 0-2-0.9-2-2s0.9-2 2-2h10.3l0.1-14c-0.3-0.2-0.7-0.5-1-0.7-0.5-0.4-1.1-0.8-1.6-1.2-3.2-2.6-4.8-6.4-4.8-11.2V36c0-3.3 2.7-6 6-6 1.5 0 2.9 0.5 4 1.5 2.1-1.9 5.2-2.1 7.5-0.4 2.3-1.7 5.4-1.5 7.5 0.4 2.5-2.2 6.2-2 8.5 0.4 1 1.1 1.5 2.5 1.5 4v28.8c0 4.8-1.6 8.6-4.8 11.2-0.6 0.5-1.1 0.9-1.6 1.2-0.3 0.2-0.7 0.5-1 0.7l0.1 14H72V37.9c0-3.3 2.2-6.3 5.3-7.4 3-1.2 6.4-0.3 8.5 2.1 11.6 13.8 8.1 34.7 6.2 45.9-0.1 0.9-0.3 1.7-0.4 2.5-0.3 1.6-0.5 3.2-0.5 4.9l0.2 6.2H97c1.1 0 2 0.9 2 2s-0.9 2-2 2h-5.7l0.7 27.9c0 1.4-0.3 2.8-1 4.1h14c3.3 0 6-2.7 6-6V6c0-3.3-2.7-6-6-6H23c-3.3 0-6 2.7-6 6v116C17 125.3 19.7 128 23 128z" fill="black"></path></svg></g></svg></g></svg></g><defs><mask></mask></defs></svg><rect width="395.52" height="198.9571009318899" fill="black" stroke="none" visibility="hidden"></rect></g></mask><mask><g id="SvgjsG1150"><svg viewBox="0 0 395.52 198.9571009318899" height="198.9571009318899" width="395.52"><g><svg viewBox="0 0 665.5079795019717 334.7682500221276" height="198.9571009318899" width="395.52"><g transform="matrix(1,0,0,1,268.0103795019717,89.00563828204555)"><svg viewBox="0 0 397.4975999999999 156.75697345803647" height="156.75697345803647" width="397.4975999999999"><g id="SvgjsG1149"><svg viewBox="0 0 397.4975999999999 156.75697345803647" height="156.75697345803647" width="397.4975999999999" id="SvgjsSvg1148"><g></g><g transform="matrix(1,0,0,1,0.9887999999999693,0)"><svg viewBox="0 0 395.52 94.70197183098591" height="94.70197183098591" width="395.52"><g transform="matrix(1,0,0,1,0,0)"><svg width="395.52" viewBox="2.59 -41.11 228.79 54.78" height="94.70197183098591" data-palette-color="url(#82934427-3958-4d9a-bb0e-1e13b3c2b2fa)"></svg></g></svg></g><g transform="matrix(1,0,0,1,0,123.3634698149138)"><svg viewBox="0 0 232.209792 33.39350364312267" height="33.39350364312267" width="232.209792"><g transform="matrix(1,0,0,1,0,0)"><svg width="232.209792" viewBox="4.5 -36 255.52999999999997 36.75" height="33.39350364312267" data-palette-color="url(#d637dd9e-9ce4-4685-8d63-39628830bae8)"><path d="M27.1 0L22.05 0 14-14.1 8.75-14.1 8.75 0 4.5 0 4.5-36 12-36Q17.85-36 21.15-33.33 24.45-30.65 24.45-24.9L24.45-24.9Q24.45-22.85 23.95-21.28 23.45-19.7 22.6-18.5 21.75-17.3 20.6-16.45 19.45-15.6 18.15-15.05L18.15-15.05 27.1 0ZM11.95-32.75L8.75-32.75 8.75-17.35 12.1-17.35Q16-17.35 18.05-19.23 20.1-21.1 20.1-24.9L20.1-24.9Q20.1-28.7 18.25-30.73 16.4-32.75 11.95-32.75L11.95-32.75ZM47.85-15.85L47.85-12.6 36.45-12.6 36.45-3.35 49.3-3.35 49.3 0 32.35 0 32.35-28 49.3-28 49.3-24.65 36.45-24.65 36.45-15.85 47.85-15.85ZM54.8-5.2L58.25-6.8Q58.55-6.1 59.15-5.33 59.75-4.55 60.65-3.9 61.55-3.25 62.77-2.85 64-2.45 65.5-2.45L65.5-2.45Q66.59-2.45 67.7-2.7 68.8-2.95 69.65-3.5 70.5-4.05 71.05-4.93 71.59-5.8 71.59-7.05L71.59-7.05Q71.59-8.3 71.22-9.13 70.84-9.95 69.95-10.58 69.05-11.2 67.55-11.78 66.05-12.35 63.8-13.1L63.8-13.1Q60.2-14.3 58.12-16.1 56.05-17.9 56.05-21.05L56.05-21.05Q56.05-22.45 56.7-23.78 57.34-25.1 58.57-26.13 59.8-27.15 61.57-27.75 63.34-28.35 65.65-28.35L65.65-28.35Q69.09-28.35 71.52-26.9 73.95-25.45 75.25-23.05L75.25-23.05 71.75-21.65Q70.84-23.4 69.42-24.33 68-25.25 65.75-25.25L65.75-25.25Q64.65-25.25 63.59-25.03 62.55-24.8 61.75-24.33 60.95-23.85 60.45-23.13 59.95-22.4 59.95-21.35L59.95-21.35Q59.95-20.3 60.32-19.58 60.7-18.85 61.5-18.25 62.3-17.65 63.59-17.13 64.9-16.6 66.8-15.9L66.8-15.9Q69-15.1 70.65-14.38 72.3-13.65 73.42-12.7 74.55-11.75 75.09-10.45 75.65-9.15 75.65-7.2L75.65-7.2Q75.65-5.45 74.92-4 74.2-2.55 72.87-1.5 71.55-0.45 69.67 0.15 67.8 0.75 65.5 0.75L65.5 0.75Q63.25 0.75 61.47 0.2 59.7-0.35 58.37-1.23 57.05-2.1 56.15-3.15 55.25-4.2 54.8-5.2L54.8-5.2ZM100.49-28L100.49-24.45 92.19-24.45 92.19 0 88.09 0 88.09-24.45 79.89-24.45 79.89-28 100.49-28ZM125.99 0L121.54 0 119.19-6.75 106.69-6.75 104.29 0 100.14 0 110.64-28 115.54-28 125.99 0ZM113.04-24.7L107.79-9.95 118.09-9.95 113.04-24.7ZM130.09-28L134.19-28 134.19-8.75Q134.19-5.9 135.71-4.25 137.24-2.6 140.79-2.6L140.79-2.6Q144.34-2.6 145.89-4.25 147.44-5.9 147.44-8.75L147.44-8.75 147.44-28 151.39-28 151.39-9.05Q151.39-4.65 148.64-1.95 145.89 0.75 140.74 0.75L140.74 0.75Q135.64 0.75 132.86-1.95 130.09-4.65 130.09-9.05L130.09-9.05 130.09-28ZM181.59 0L176.79 0 169.49-10.3 164.19-10.3 164.19 0 160.14 0 160.14-28 167.59-28Q170.14-28 172.24-27.5 174.34-27 175.84-25.9 177.34-24.8 178.19-23.13 179.04-21.45 179.04-19.15L179.04-19.15Q179.04-15.65 177.49-13.75 175.94-11.85 173.54-11L173.54-11 181.59 0ZM167.69-24.9L164.19-24.9 164.19-13.4 167.49-13.4Q171.24-13.4 173.06-14.73 174.89-16.05 174.89-19.15L174.89-19.15Q174.89-22.1 173.06-23.5 171.24-24.9 167.69-24.9L167.69-24.9ZM208.68 0L204.23 0 201.88-6.75 189.38-6.75 186.98 0 182.83 0 193.33-28 198.23-28 208.68 0ZM195.73-24.7L190.48-9.95 200.78-9.95 195.73-24.7ZM229.93-28L233.68-28 233.68 0 227.88 0 217.53-23.4 217.53 0 213.68 0 213.68-28 219.58-28 229.93-4.85 229.93-28ZM260.03-28L260.03-24.45 251.73-24.45 251.73 0 247.63 0 247.63-24.45 239.43-24.45 239.43-28 260.03-28Z" opacity="1" transform="matrix(1,0,0,1,0,0)" fill="black" class="slogan-text-1" id="SvgjsPath1147"></path></svg></g></svg></g></svg></g></svg></g><g><svg viewBox="0 0 245.65351679999992 334.7682500221276" height="334.7682500221276" width="245.65351679999992"><g><svg xmlns="http://www.w3.org/2000/svg" xmlns:xlink="http://www.w3.org/1999/xlink" version="1.1" x="0" y="0" viewBox="17 0 94 128.1" enable-background="new 0 0 128 128" xml:space="preserve" width="245.65351679999992" height="334.7682500221276" class="icon-icon-0" data-fill-palette-color="accent" id="SvgjsSvg1146"><path d="M50 62V36c0-1.1-0.9-2-2-2s-2 0.9-2 2v26c0 1.1 0.9 2 2 2S50 63.1 50 62z" fill="black"></path><path d="M57 62V36c0-1.1-0.9-2-2-2s-2 0.9-2 2v26c0 1.1 0.9 2 2 2S57 63.1 57 62z" fill="black"></path><path d="M60.3 74c0.5-0.4 1-0.7 1.4-1.1 2.2-1.9 3.3-4.5 3.3-8.1V36c0-1.1-0.9-2-2-2s-2 0.9-2 2v28.8c0 2.4-0.6 4-1.9 5.1-0.4 0.3-0.8 0.6-1.2 0.9-1.8 1.3-4.3 3.1-4.3 6.3 0 0 0.4 44 0.4 44.3 0.1 0.9 0.1 1.7 0 2.6 0 0 0 0-0.1 0h-4.8c0 0 0 0-0.1 0-0.1-0.9-0.1-1.7 0-2.6 0-0.4 0.4-44.3 0.4-44.3 0-3.2-2.5-5-4.3-6.3-0.4-0.3-0.8-0.6-1.2-0.9-1.3-1.1-1.9-2.6-1.9-5.1V36c0-1.1-0.9-2-2-2s-2 0.9-2 2v28.8c0 3.6 1.1 6.3 3.3 8.1 0.4 0.4 0.9 0.7 1.4 1.1 1.7 1.2 2.7 2 2.7 3l-0.3 43.1c0 0.4 0 0.7 0 1.1-0.1 2.6-0.3 6.5 3.9 6.8l2.1 0c0 0 3 0 3 0l0.1 0c4.2-0.3 4-4.2 3.9-6.8 0-0.3 0-0.7 0-1l-0.3-43.1C57.6 76 58.6 75.2 60.3 74z" fill="black"></path><path d="M88 77.8c1.8-10.6 5.1-30.3-5.3-42.6-1-1.1-2.6-1.5-4-0.9-1.6 0.5-2.6 2-2.7 3.7v87c-0.1 0.9 0.3 1.8 0.9 2.4 0.5 0.5 1.2 0.7 1.9 0.7 0.3 0 5.2 0 5.2 0 2.5 0 3.9-1.4 3.9-4l-1-38.1c0.1-1.9 0.3-3.7 0.6-5.6C87.7 79.6 87.9 78.7 88 77.8zM84.1 77.2c-0.2 0.9-0.3 1.8-0.4 2.5-0.4 2.1-0.6 4.1-0.6 6.2l1 38c0 0-3.9 0-4 0V38.2C88.8 49.2 85.9 66.7 84.1 77.2z" fill="black"></path><path d="M72 124.9V96H61.8l0.2 24.1c0 0.3 0 0.6 0 1 0.2 1.8 0.1 3.5-0.4 5.2-0.2 0.6-0.4 1.2-0.7 1.7h11.8C72.2 127 72 126 72 124.9z" fill="black"></path><path d="M23 128h19.1c-0.3-0.5-0.6-1.1-0.7-1.7-0.4-1.7-0.5-3.5-0.4-5.2 0-0.3 0-0.6 0-1L41.2 96H31c-1.1 0-2-0.9-2-2s0.9-2 2-2h10.3l0.1-14c-0.3-0.2-0.7-0.5-1-0.7-0.5-0.4-1.1-0.8-1.6-1.2-3.2-2.6-4.8-6.4-4.8-11.2V36c0-3.3 2.7-6 6-6 1.5 0 2.9 0.5 4 1.5 2.1-1.9 5.2-2.1 7.5-0.4 2.3-1.7 5.4-1.5 7.5 0.4 2.5-2.2 6.2-2 8.5 0.4 1 1.1 1.5 2.5 1.5 4v28.8c0 4.8-1.6 8.6-4.8 11.2-0.6 0.5-1.1 0.9-1.6 1.2-0.3 0.2-0.7 0.5-1 0.7l0.1 14H72V37.9c0-3.3 2.2-6.3 5.3-7.4 3-1.2 6.4-0.3 8.5 2.1 11.6 13.8 8.1 34.7 6.2 45.9-0.1 0.9-0.3 1.7-0.4 2.5-0.3 1.6-0.5 3.2-0.5 4.9l0.2 6.2H97c1.1 0 2 0.9 2 2s-0.9 2-2 2h-5.7l0.7 27.9c0 1.4-0.3 2.8-1 4.1h14c3.3 0 6-2.7 6-6V6c0-3.3-2.7-6-6-6H23c-3.3 0-6 2.7-6 6v116C17 125.3 19.7 128 23 128z" fill="black"></path></svg></g></svg></g></svg></g><defs><mask></mask></defs><mask><g id="SvgjsG1145"><svg viewBox="0 0 395.52 198.9571009318899" height="198.9571009318899" width="395.52"><g><svg viewBox="0 0 665.5079795019717 334.7682500221276" height="198.9571009318899" width="395.52"><g transform="matrix(1,0,0,1,268.0103795019717,89.00563828204555)"><svg viewBox="0 0 397.4975999999999 156.75697345803647" height="156.75697345803647" width="397.4975999999999"><g id="SvgjsG1144"><svg viewBox="0 0 397.4975999999999 156.75697345803647" height="156.75697345803647" width="397.4975999999999" id="SvgjsSvg1143"><g><rect width="397.4975999999999" height="8.54032155215324" x="0" y="104.76256004687323" fill="black" opacity="1" stroke-width="0" stroke="transparent" fill-opacity="1" class="rect-qz-0" rx="1%" id="SvgjsRect1142" data-palette-color="url(#82934427-3958-4d9a-bb0e-1e13b3c2b2fa)"></rect></g><g transform="matrix(1,0,0,1,0.9887999999999693,0)"><svg viewBox="0 0 395.52 94.70197183098591" height="94.70197183098591" width="395.52"><g transform="matrix(1,0,0,1,0,0)"><svg width="395.52" viewBox="2.59 -41.11 228.79 54.78" height="94.70197183098591" data-palette-color="url(#82934427-3958-4d9a-bb0e-1e13b3c2b2fa)"><path d="M2.59 0L2.59-1.9 6.74-1.9 6.76-35.45 2.59-35.45 2.59-37.35 21-37.35Q26.73-37.35 29.53-34.73 32.32-32.1 32.32-27.98L32.32-27.98Q32.32-23.17 27.88-20.87L27.88-20.87Q26.56-20.19 25.1-19.8L25.1-19.8Q29.81-19.24 32.3-16.77 34.79-14.31 34.79-10.72L34.79-10.72Q34.79-5.79 31.19-2.89 27.59 0 20.9 0L20.9 0 2.59 0ZM13.33-20.31L19.31-20.31Q24.61-20.31 25.63-24.85L25.63-24.85Q25.95-26.22 25.95-27.78L25.95-27.78Q25.95-31.49 24.76-33.15L24.76-33.15Q23.14-35.45 18.65-35.45L18.65-35.45 13.33-35.45 13.33-20.31ZM13.33-1.9L18.99-1.9Q23.44-1.9 25.79-4.03 28.15-6.15 28.15-10.06L28.15-10.06Q28.15-15.8 23.58-17.72L23.58-17.72Q21.92-18.43 19.53-18.43L19.53-18.43 13.33-18.43 13.33-1.9ZM49.61-24.98L49.61-21.61Q53.54-25.39 58.1-25.39L58.1-25.39Q59.57-25.39 60.69-24.41 61.81-23.44 61.81-21.91 61.81-20.39 60.86-19.43 59.91-18.48 58.54-18.48L58.54-18.48Q57.18-18.48 56.24-19.42 55.3-20.36 55.3-21.75L55.3-21.75Q55.3-22.31 55.49-22.9L55.49-22.9Q51.95-21.83 49.61-19.26L49.61-19.26 49.61-1.88 54.95-1.88 54.95 0 39.57 0 39.57-1.88 43.21-1.88 43.21-23.07 39.55-23.07 39.55-24.98 49.61-24.98ZM81.12-2.76L81.12-2.76Q78.29 0.49 73.53 0.49L73.53 0.49Q69.92 0.49 67.3-1.53 64.69-3.54 64.69-6.8 64.69-10.06 67.26-11.93 69.82-13.79 73.86-13.79 77.9-13.79 80.61-11.77L80.61-11.77 80.61-17.58Q80.61-20.53 79.88-21.58 79.15-22.63 78.16-23.05 77.17-23.46 75.97-23.46L75.97-23.46Q74.09-23.46 72.8-23.03 71.5-22.61 71.06-22.17L71.06-22.17Q72.19-21.83 72.8-20.46L72.8-20.46Q72.99-19.97 72.99-19.29L72.99-19.29Q72.99-17.94 72.02-17.05 71.04-16.16 70.06-16.16L70.06-16.16Q68.35-16.16 67.4-17.07 66.45-17.97 66.45-19.24 66.45-20.51 66.91-21.33 67.38-22.14 68.16-22.8L68.16-22.8Q69.65-24.05 71.91-24.71 74.16-25.37 76.14-25.37L76.14-25.37Q81.64-25.37 84.27-23.14 86.91-20.92 86.91-16.94L86.91-16.94 86.91-3.93Q86.91-1.9 87.91-1.9 88.91-1.9 89.84-3.13L89.84-3.13 91.11-2.08Q89.45 0.44 85.69 0.44L85.69 0.44Q84.37 0.44 83.02-0.39 81.66-1.22 81.12-2.76ZM80.68-4.71L80.68-9.59Q78.61-11.62 76.14-11.62 73.68-11.62 72.43-10.46 71.19-9.3 71.19-6.74L71.19-6.74Q71.19-2.95 73.85-2.15L73.85-2.15Q74.6-1.9 75.39-1.9L75.39-1.9Q77.61-1.9 79.63-3.61L79.63-3.61Q80.22-4.13 80.68-4.71L80.68-4.71ZM110.51-23.07L110.51-23.07Q106.54-23.07 103.31-19.38L103.31-19.38 103.31-1.9 107.76-1.9 107.76 0 93.01 0 93.01-1.9 96.97-1.9 96.97-23.07 92.99-23.07 92.99-24.98 103.31-24.98 103.31-21.85Q106.97-25.39 111.69-25.39L111.69-25.39Q114.93-25.39 117.45-23.73L117.45-23.73Q120.7-21.58 120.7-16.89L120.7-16.89 120.7-1.9 124.65-1.9 124.65 0 109.9 0 109.9-1.9 114.35-1.9 114.35-17.38Q114.35-20.24 113.75-21.26 113.15-22.29 112.41-22.68 111.66-23.07 110.51-23.07ZM147.52 0L147.52-2.54Q144.64 0.49 138.91 0.49L138.91 0.49Q137 0.49 134.91-0.26 132.83-1 131.25-2.59 129.68-4.17 128.76-6.63 127.85-9.08 127.85-12.3L127.85-12.3Q127.85-18.36 131.39-21.88 134.93-25.39 140.03-25.39L140.03-25.39Q143.25-25.39 145.99-24.07L145.99-24.07Q146.87-23.66 147.52-23.14L147.52-23.14 147.52-39.21 142.47-39.21 142.47-41.11 153.87-41.11 153.87-1.9 157.49-1.9 157.49 0 147.52 0ZM141.05-23.29L141.05-23.29Q134.68-23.29 134.68-12.55L134.68-12.55Q134.68-4.57 138.12-2.49L138.12-2.49Q139.32-1.76 141.16-1.77 143.01-1.78 144.7-2.78 146.4-3.78 147.52-5.47L147.52-5.47 147.52-20.56Q145.64-22.51 142.74-23.1L142.74-23.1Q141.86-23.29 141.05-23.29ZM160.55 7.85Q161.19 7.18 161.79 6.92 162.39 6.67 163.53 6.67 164.66 6.67 165.48 7.53 166.3 8.4 166.3 9.42 166.3 10.45 165.69 11.28L165.69 11.28Q166.61 11.13 167.57 9.85 168.52 8.57 169.81 5.91L169.81 5.91 172.06 0.49 160.78-23.07 158.17-23.07 158.17-24.98 171.33-24.98 171.33-23.07 167.93-23.07 175.3-6.32 181.9-23.07 177.62-23.07 177.62-24.98 186.78-24.98 186.78-23.07 184.29-23.07 174.62 0.49 171.67 7.13Q169.93 10.57 168.73 11.72 167.52 12.87 166.54 13.27 165.56 13.67 164.51 13.67L164.51 13.67Q162.54 13.67 161.22 12.59 159.9 11.5 159.9 10.01 159.9 8.52 160.55 7.85ZM196.84-24.9L194.78-38.06Q194.59-39.23 195.57-40.17 196.54-41.11 197.9-41.11 199.25-41.11 199.94-40.5L199.94-40.5Q201.18-39.36 200.91-37.99L200.91-37.99 198.74-24.9 196.84-24.9ZM214.83-1.78L214.83-1.78Q214.05-1.25 213.95 0L213.95 0 211.6 0 211.7-7.35 213.95-7.35Q213.95-5.47 216.3-3.49 218.66-1.51 222.27-1.51 225.89-1.51 226.86-3.61L226.86-3.61Q227.13-4.22 227.13-4.88L227.13-4.88Q227.13-6.1 225.46-7.13 223.79-8.15 219.97-9.52 216.14-10.89 213.95-13.05 211.75-15.21 211.75-18.32 211.75-21.44 214.53-23.41 217.32-25.39 220.97-25.39 224.62-25.39 226.84-23.58L226.84-23.58Q227.52-23.8 227.91-24.66L227.91-24.66Q228.06-24.95 228.06-25.37L228.06-25.37 229.91-25.37 229.91-18.55 227.77-18.55Q227.35-20.85 225.56-22.13 223.76-23.41 221.34-23.41 218.93-23.41 217.62-22.47 216.32-21.53 216.32-20.19 216.32-18.85 217.82-17.74 219.32-16.63 222.07-15.66 224.81-14.7 226.37-13.96L226.37-13.96Q231.38-11.55 231.38-6.97 231.38-2.39 226.25-0.32L226.25-0.32Q224.25 0.49 222.17 0.49L222.17 0.49Q217.85 0.49 214.83-1.78Z" opacity="1" transform="matrix(1,0,0,1,0,0)" fill="black" class="wordmark-text-0" id="SvgjsPath1141"></path></svg></g></svg></g><g transform="matrix(1,0,0,1,0,123.3634698149138)"><svg viewBox="0 0 232.209792 33.39350364312267" height="33.39350364312267" width="232.209792"><g transform="matrix(1,0,0,1,0,0)"><svg width="232.209792" viewBox="4.5 -36 255.52999999999997 36.75" height="33.39350364312267" data-palette-color="url(#d637dd9e-9ce4-4685-8d63-39628830bae8)"><path d="M27.1 0L22.05 0 14-14.1 8.75-14.1 8.75 0 4.5 0 4.5-36 12-36Q17.85-36 21.15-33.33 24.45-30.65 24.45-24.9L24.45-24.9Q24.45-22.85 23.95-21.28 23.45-19.7 22.6-18.5 21.75-17.3 20.6-16.45 19.45-15.6 18.15-15.05L18.15-15.05 27.1 0ZM11.95-32.75L8.75-32.75 8.75-17.35 12.1-17.35Q16-17.35 18.05-19.23 20.1-21.1 20.1-24.9L20.1-24.9Q20.1-28.7 18.25-30.73 16.4-32.75 11.95-32.75L11.95-32.75ZM47.85-15.85L47.85-12.6 36.45-12.6 36.45-3.35 49.3-3.35 49.3 0 32.35 0 32.35-28 49.3-28 49.3-24.65 36.45-24.65 36.45-15.85 47.85-15.85ZM54.8-5.2L58.25-6.8Q58.55-6.1 59.15-5.33 59.75-4.55 60.65-3.9 61.55-3.25 62.77-2.85 64-2.45 65.5-2.45L65.5-2.45Q66.59-2.45 67.7-2.7 68.8-2.95 69.65-3.5 70.5-4.05 71.05-4.93 71.59-5.8 71.59-7.05L71.59-7.05Q71.59-8.3 71.22-9.13 70.84-9.95 69.95-10.58 69.05-11.2 67.55-11.78 66.05-12.35 63.8-13.1L63.8-13.1Q60.2-14.3 58.12-16.1 56.05-17.9 56.05-21.05L56.05-21.05Q56.05-22.45 56.7-23.78 57.34-25.1 58.57-26.13 59.8-27.15 61.57-27.75 63.34-28.35 65.65-28.35L65.65-28.35Q69.09-28.35 71.52-26.9 73.95-25.45 75.25-23.05L75.25-23.05 71.75-21.65Q70.84-23.4 69.42-24.33 68-25.25 65.75-25.25L65.75-25.25Q64.65-25.25 63.59-25.03 62.55-24.8 61.75-24.33 60.95-23.85 60.45-23.13 59.95-22.4 59.95-21.35L59.95-21.35Q59.95-20.3 60.32-19.58 60.7-18.85 61.5-18.25 62.3-17.65 63.59-17.13 64.9-16.6 66.8-15.9L66.8-15.9Q69-15.1 70.65-14.38 72.3-13.65 73.42-12.7 74.55-11.75 75.09-10.45 75.65-9.15 75.65-7.2L75.65-7.2Q75.65-5.45 74.92-4 74.2-2.55 72.87-1.5 71.55-0.45 69.67 0.15 67.8 0.75 65.5 0.75L65.5 0.75Q63.25 0.75 61.47 0.2 59.7-0.35 58.37-1.23 57.05-2.1 56.15-3.15 55.25-4.2 54.8-5.2L54.8-5.2ZM100.49-28L100.49-24.45 92.19-24.45 92.19 0 88.09 0 88.09-24.45 79.89-24.45 79.89-28 100.49-28ZM125.99 0L121.54 0 119.19-6.75 106.69-6.75 104.29 0 100.14 0 110.64-28 115.54-28 125.99 0ZM113.04-24.7L107.79-9.95 118.09-9.95 113.04-24.7ZM130.09-28L134.19-28 134.19-8.75Q134.19-5.9 135.71-4.25 137.24-2.6 140.79-2.6L140.79-2.6Q144.34-2.6 145.89-4.25 147.44-5.9 147.44-8.75L147.44-8.75 147.44-28 151.39-28 151.39-9.05Q151.39-4.65 148.64-1.95 145.89 0.75 140.74 0.75L140.74 0.75Q135.64 0.75 132.86-1.95 130.09-4.65 130.09-9.05L130.09-9.05 130.09-28ZM181.59 0L176.79 0 169.49-10.3 164.19-10.3 164.19 0 160.14 0 160.14-28 167.59-28Q170.14-28 172.24-27.5 174.34-27 175.84-25.9 177.34-24.8 178.19-23.13 179.04-21.45 179.04-19.15L179.04-19.15Q179.04-15.65 177.49-13.75 175.94-11.85 173.54-11L173.54-11 181.59 0ZM167.69-24.9L164.19-24.9 164.19-13.4 167.49-13.4Q171.24-13.4 173.06-14.73 174.89-16.05 174.89-19.15L174.89-19.15Q174.89-22.1 173.06-23.5 171.24-24.9 167.69-24.9L167.69-24.9ZM208.68 0L204.23 0 201.88-6.75 189.38-6.75 186.98 0 182.83 0 193.33-28 198.23-28 208.68 0ZM195.73-24.7L190.48-9.95 200.78-9.95 195.73-24.7ZM229.93-28L233.68-28 233.68 0 227.88 0 217.53-23.4 217.53 0 213.68 0 213.68-28 219.58-28 229.93-4.85 229.93-28ZM260.03-28L260.03-24.45 251.73-24.45 251.73 0 247.63 0 247.63-24.45 239.43-24.45 239.43-28 260.03-28Z" opacity="1" transform="matrix(1,0,0,1,0,0)" fill="black" class="slogan-text-1" id="SvgjsPath1140"></path></svg></g></svg></g></svg></g></svg></g><g><svg viewBox="0 0 245.65351679999992 334.7682500221276" height="334.7682500221276" width="245.65351679999992"><g><svg xmlns="http://www.w3.org/2000/svg" xmlns:xlink="http://www.w3.org/1999/xlink" version="1.1" x="0" y="0" viewBox="17 0 94 128.1" enable-background="new 0 0 128 128" xml:space="preserve" width="245.65351679999992" height="334.7682500221276" class="icon-icon-0" data-fill-palette-color="accent" id="SvgjsSvg1139"><path d="M50 62V36c0-1.1-0.9-2-2-2s-2 0.9-2 2v26c0 1.1 0.9 2 2 2S50 63.1 50 62z" fill="black"></path><path d="M57 62V36c0-1.1-0.9-2-2-2s-2 0.9-2 2v26c0 1.1 0.9 2 2 2S57 63.1 57 62z" fill="black"></path><path d="M60.3 74c0.5-0.4 1-0.7 1.4-1.1 2.2-1.9 3.3-4.5 3.3-8.1V36c0-1.1-0.9-2-2-2s-2 0.9-2 2v28.8c0 2.4-0.6 4-1.9 5.1-0.4 0.3-0.8 0.6-1.2 0.9-1.8 1.3-4.3 3.1-4.3 6.3 0 0 0.4 44 0.4 44.3 0.1 0.9 0.1 1.7 0 2.6 0 0 0 0-0.1 0h-4.8c0 0 0 0-0.1 0-0.1-0.9-0.1-1.7 0-2.6 0-0.4 0.4-44.3 0.4-44.3 0-3.2-2.5-5-4.3-6.3-0.4-0.3-0.8-0.6-1.2-0.9-1.3-1.1-1.9-2.6-1.9-5.1V36c0-1.1-0.9-2-2-2s-2 0.9-2 2v28.8c0 3.6 1.1 6.3 3.3 8.1 0.4 0.4 0.9 0.7 1.4 1.1 1.7 1.2 2.7 2 2.7 3l-0.3 43.1c0 0.4 0 0.7 0 1.1-0.1 2.6-0.3 6.5 3.9 6.8l2.1 0c0 0 3 0 3 0l0.1 0c4.2-0.3 4-4.2 3.9-6.8 0-0.3 0-0.7 0-1l-0.3-43.1C57.6 76 58.6 75.2 60.3 74z" fill="black"></path><path d="M88 77.8c1.8-10.6 5.1-30.3-5.3-42.6-1-1.1-2.6-1.5-4-0.9-1.6 0.5-2.6 2-2.7 3.7v87c-0.1 0.9 0.3 1.8 0.9 2.4 0.5 0.5 1.2 0.7 1.9 0.7 0.3 0 5.2 0 5.2 0 2.5 0 3.9-1.4 3.9-4l-1-38.1c0.1-1.9 0.3-3.7 0.6-5.6C87.7 79.6 87.9 78.7 88 77.8zM84.1 77.2c-0.2 0.9-0.3 1.8-0.4 2.5-0.4 2.1-0.6 4.1-0.6 6.2l1 38c0 0-3.9 0-4 0V38.2C88.8 49.2 85.9 66.7 84.1 77.2z" fill="black"></path><path d="M72 124.9V96H61.8l0.2 24.1c0 0.3 0 0.6 0 1 0.2 1.8 0.1 3.5-0.4 5.2-0.2 0.6-0.4 1.2-0.7 1.7h11.8C72.2 127 72 126 72 124.9z" fill="black"></path><path d="M23 128h19.1c-0.3-0.5-0.6-1.1-0.7-1.7-0.4-1.7-0.5-3.5-0.4-5.2 0-0.3 0-0.6 0-1L41.2 96H31c-1.1 0-2-0.9-2-2s0.9-2 2-2h10.3l0.1-14c-0.3-0.2-0.7-0.5-1-0.7-0.5-0.4-1.1-0.8-1.6-1.2-3.2-2.6-4.8-6.4-4.8-11.2V36c0-3.3 2.7-6 6-6 1.5 0 2.9 0.5 4 1.5 2.1-1.9 5.2-2.1 7.5-0.4 2.3-1.7 5.4-1.5 7.5 0.4 2.5-2.2 6.2-2 8.5 0.4 1 1.1 1.5 2.5 1.5 4v28.8c0 4.8-1.6 8.6-4.8 11.2-0.6 0.5-1.1 0.9-1.6 1.2-0.3 0.2-0.7 0.5-1 0.7l0.1 14H72V37.9c0-3.3 2.2-6.3 5.3-7.4 3-1.2 6.4-0.3 8.5 2.1 11.6 13.8 8.1 34.7 6.2 45.9-0.1 0.9-0.3 1.7-0.4 2.5-0.3 1.6-0.5 3.2-0.5 4.9l0.2 6.2H97c1.1 0 2 0.9 2 2s-0.9 2-2 2h-5.7l0.7 27.9c0 1.4-0.3 2.8-1 4.1h14c3.3 0 6-2.7 6-6V6c0-3.3-2.7-6-6-6H23c-3.3 0-6 2.7-6 6v116C17 125.3 19.7 128 23 128z" fill="black"></path></svg></g></svg></g></svg></g><defs><mask></mask></defs></svg><rect width="395.52" height="198.9571009318899" fill="black" stroke="none" visibility="hidden"></rect></g></mask></svg><rect width="395.52" height="198.9571009318899" fill="black" stroke="none" visibility="hidden"></rect></g></mask></svg><rect width="395.52" height="198.9571009318899" fill="black" stroke="none" visibility="hidden"></rect></g></mask><linearGradient x1="0.054" x2="0.941" y1="0.5" y2="0.5" id="8c28d9b8-69d2-4776-b1aa-ca73b47c8673"><stop stop-color="#864d25" offset="0"></stop><stop stop-color="#f1c4b3" offset="0.498"></stop><stop stop-color="#864d25" offset="1"></stop></linearGradient><rect width="395.52" height="198.9571009318899" fill="url(#8c28d9b8-69d2-4776-b1aa-ca73b47c8673)" mask="url(#5f1e4d08-a1d3-496d-a51f-c13708936443)" data-fill-palette-color="accent"></rect></svg><rect width="395.52" height="198.9571009318899" fill="none" stroke="none" visibility="hidden"></rect></g></svg></g></svg>